<?xml version="1.0" encoding="UTF-8"?>
<svg version="1.1" viewBox="0 0 1600 1103" width="1280" height="1280" xmlns="http://www.w3.org/2000/svg">
<path transform="translate(0)" d="m0 0h1600v1103h-1600z" fill="#DDF6FD"/>
<path transform="translate(0)" d="m0 0h1600v1103h-1600zm600 122-427 1-62 1-1 83v680l1 80h1314l6-2 1-840-1-2-650-1z" fill="#4ECBC6"/>
<path transform="translate(1214,324)" d="m0 0h20l72 1 10 4 8 7 7 8 4 8 1 4 1 57v89l4 6 1 9-4 12-3 12h-11l-7-3-1-12 1-7-12 1v7l1 2v7l2 5 8 2h14l5 2 1 5 18 6 3 3 4 11 5 21 1 7v10l-8 12-4 16-1 7v14l5 15 1 6v12l-4 35-3 32v16l6 27 2 13 5-3 1-4 5-1 1 5-5 6-6 4-1 3-1 35 1 9 3 6v2l3 1-17 1h-33l1-7 9-3 19-5-3-7-2-19-7 3-6 1-18 1-1 1-3 21 4 4 2 10h-49l-2-3 3-3 26-8-1-1-1-21h-420l5 30 3 5 10 6 15 6 1 1v5h-34l-10-1 2-9 3-3-1-6-10-19-7-14-1-1h-16l-10 19-7 15 2 4 8 4 13 5 1 6h-17l-27-3 2-6 5-9 7-24 3-10-94-1-18-2-9-3-4-3-3-1v-2l-5-2-12-11-5-5v-3h-2l-2-4h39v-110l1-334 3-13 7-11 10-8 8-3 6-1z" fill="#DCF6FD"/>
<path transform="translate(1214,324)" d="m0 0h20l72 1 10 4 8 7 7 8 4 8 1 4 1 57v89l4 6 1 9-4 12-3 12h-11l-7-3-1-12 1-7-12 1-1-4h-2l-1-148-3-6v-2l-7-2-25-1-210-1-37 2-18 2-7-1-8-1-20-1h-220l-9 1-6 5-2 5v428l5 5v2l4 1 21 2h6l-2-4-2-5v-13l5-12 2-2 30 3 5 3 7 2h4l-10-5 1-4 10 3 13 2 2-5 7-18h27l25 1-3 10-10 23-3 6-2 1h-10l2 12 125 1 1-8 19-3 3-2 2-49 4-60 4-35 3-25 3-33 1-2v-15l1-11v-26h-2l-3-17-5-10-5-5-12-9-1-3 3-8 2-9h39l4-1 16-1 16 3h9l10-10 5 1 6 5 5 6-1 6-7 11-11 14-4 13 35-1h127l4 1-2 31h-6v-25l-87-1v32l-1 12h66l3 2v2l-2 2v2h-142l3 16 1 17 1 42 5 47 2 5 3 31v42l-1 13v10l1 2 184 1v-29l4-44 5-38 3-31 1-7h53l4 10 3 12v12l-4 35-3 32v16l6 27 2 13 5-3 1-4 5-1 1 5-5 6-6 4-1 3-1 35 1 9 3 6v2l3 1-17 1h-33l1-7 9-3 19-5-3-7-2-19-7 3-6 1-18 1-1 1-3 21 4 4 2 10h-49l-2-3 3-3 26-8-1-1-1-21h-420l5 30 3 5 10 6 15 6 1 1v5h-34l-10-1 2-9 3-3-1-6-10-19-7-14-1-1h-16l-10 19-7 15 2 4 8 4 13 5 1 6h-17l-27-3 2-6 5-9 7-24 3-10-94-1-18-2-9-3-4-3-3-1v-2l-5-2-12-11-5-5v-3h-2l-2-4h39v-110l1-334 3-13 7-11 10-8 8-3 6-1z" fill="#069599"/>
<path transform="translate(1056,355)" d="m0 0 210 1 25 1 7 3 4 8v148h2l1 11 1 2v7l2 5 8 2h14l5 2 1 5 18 6 3 3 4 11 5 21 1 7v10l-8 12-4 16-2 20-4 1h-38l-11-1-1 17-3 30-4 29-4 44-1 29h-184l-2-3v-10l1-13v-42l-3-31-2-5-5-47-1-42-1-17-2-8v-8h142l-1-3 3-1-3-3-66-1 1-44h87l1 1v21l-1 4h6v-21l2-10h-166l1-7 3-7 13-17 5-9-1-5-4-5-6-5-5 1-7 8-2 1h-9l-16-3-19 1-1 1h-19l-20-1-2 12-3 6-6-2-11-7-6-8-5-19-3-20v-6l-18 5-11 2h-5l-4-11-6-35v-6l15-5 60-16 36-9z" fill="#DCF6FD"/>
<path transform="translate(747,104)" d="m0 0h84l8 1h12l9-1h23l31 1 21-1 11 1h42l20 1h25l18 1h69l18-1h64l19-1 12 1h57l22 1h17l35 1 37 4 8 3 5 3 20 2 2 7 4 26v9l2 18 1 8 1 41 1 37v26l1 10v15l-1 36 1 84-2 62v118l1 62 1 51v51l-1 21 1 10-1 19v12l-1 23-1 4 1 8-1 5 1 18-1 19-3 20-3 19-2 10-6 5-6 2-16 2-17 1h-97l-30 1-18 2-35 1-5 1-27 1h-25l-56-1-52-2-12-1h-16l-20-1-31-1h-230l-48-1h-80l-53 4-16 1h-49l-45-2-36-3h-28l-20-1-55-1h-49l-65 1-22-1-9-1-16-1-15-2h-13l-10-2v-2h-2l-4-7-4-8-1-4v-47l-2-36v-43l1-153-1-10-1-39-2-30-1-26v-72l1-23v-134l1-15 1-88 2-45v-9l3-25 4-12 2-7 1-9 3-4 15-5 15-4 25-2h29l10 1h15l29 1 28-1 65-1h126l21-1 14-1 17-1h18l6-1h18l41-1h13l10-1h116zm-147 18-427 1-62 1-1 83v680l1 80h1314l6-2 1-840-1-2-650-1z" fill="#32B8BC"/>
<path transform="translate(1214,324)" d="m0 0h20l72 1 10 4 8 7 7 8 4 8 1 4 1 57v89l4 6 1 9-4 12-3 12h-11l-7-3-1-12 1-7-12 1-1-4h-2l-1-148-3-6v-2l-7-2-25-1-210-1-37 2-18 2-7-1-8-1-20-1h-220l-9 1-6 5-2 5v428l5 5v2l4 1 21 2h6l-2-4-2-5v-13l5-12 2-2 30 3 5 3 7 2h4l-10-5 1-4 10 3 13 2 2-5 7-18h27l25 1-3 10-10 23-3 6-2 1h-10l3 21 4 31 2 8 3 19 3 5 10 6 15 6 1 1v5h-34l-10-1 2-9 3-3-1-6-10-19-7-14-1-1h-16l-10 19-7 15 2 4 8 4 13 5 1 6h-17l-27-3 2-6 5-9 7-24 3-10-94-1-18-2-9-3-4-3-3-1v-2l-5-2-12-11-5-5v-3h-2l-2-4h39v-110l1-334 3-13 7-11 10-8 8-3 6-1z" fill="#33B8BC"/>
<path transform="translate(111,121)" d="m0 0m1323 0h1l4 24 1 16 3 27 1 41 1 37v26l1 10v15l-1 36 1 84-2 62v118l1 62 1 51v51l-1 21 1 10-1 19v12l-1 23-1 4 1 8-1 5 1 18-1 19-3 20-3 19-2 10-6 5-6 2-16 2-17 1h-97l-30 1-18 2-35 1-5 1-27 1h-25l-56-1-52-2-12-1h-16l-20-1-31-1h-230l-48-1h-80l-53 4-16 1h-49l-45-2-36-3h-28l-20-1-55-1h-49l-65 1-22-1-9-1-16-1-15-2h-13l-10-2v-2h-2l-4-7-4-8-1-4v-47l-2-36v-43l1-153-1-10-1-39-2-30-1-26v-72l1-23v-134l1-15 1-88 2-45v-9l3-25 4-12 2-7 1-9 3-4 3 1h-2l-2 12-2 68v16l-1 19-1 11v203l-1 35v125l2 19 1 28v249l1 38 2 15 1 4 1-78h1v80l1314-1 6-2 3-11 1-14 1-40v-28l1-30v-41l1-73v-444l-1-82-2-58-1-12z" fill="#32B8BC"/>
<path transform="translate(1100,466)" d="m0 0 5 1 6 5 5 6-1 6-7 11-11 14-4 13 35-1h127l4 1-2 31h-6v-25l-87-1v32l-1 12h66l3 2v2l-2 2v2h-142l3 16 1 17 1 42 5 47 2 5 3 31v42l-2 25-5 1-35 1 2-5 2-4 18-4 5-2-3-19-3-17-9-50-3-18-9-44-3-13-1-1-7 22-5 25-3 22v12l-2 15-6 40-4 23-4 5v9l-1 3-38 1 2-9 19-3 3-2 2-49 4-60 4-35 3-25 3-33 1-2v-15l1-11v-26h-2l-3-17-5-10-5-5-12-9-1-3 3-8 2-9h39l4-1 16-1 16 3h9l5-5z" fill="#385195"/>
<path transform="translate(939,341)" d="m0 0h132l18 1h194l16 1 10 5 6 10 2 14v90l1 30-1 4 11 3 10 4 4 8-1 10-3 8-3 12h-11l-7-3-1-12 1-7-12 1-1-4h-2l-1-148-3-6v-2l-7-2-25-1-210-1-37 2-18 2-7-1-8-1-20-1h-220l-9 1-6 5-2 5v428l4 5v2l-2 1h-15l-3-5-1-9-1-24-1-163v-225l2-16 4-9 5-5 8-4 5-1 14-1h92z" fill="#049599"/>
<path transform="translate(789,624)" d="m0 0h145v19l-1 70h-101l-4-5-6-10-5-4-6-2-2 11-2 3h-7l-7-6-5-10-3-1-5 3h-5l-2-3v-9l-6 6h-7l-7-3-5-4-1-5 11-1 2-2 1-37 4-6 6-3z" fill="#D86235"/>
<path transform="translate(1300,656)" d="m0 0h53l4 10 3 12v12l-4 35-3 32v16l6 27 2 13 5-3 1-4 5-1 1 5-5 6-6 4-1 3-1 35 1 9 3 6v2l3 1-17 1h-33l1-7 9-3 19-5-3-7-2-19-7 3-6 1-18 1-1 1-3 21 4 4 2 10h-49l-2-3 3-3 26-8-1-1-1-47v-53l5-46 3-22 3-31z" fill="#1D1C53"/>
<path transform="translate(1245,389)" d="m0 0 5 1v105h-105l-1-12v-93z" fill="#D96235"/>
<path transform="translate(1056,355)" d="m0 0h17l4 2-3 5 3 23 10 5 5 9v2h2l10 18 9 15 11 21v7l-4 8-2 2-6-1-6-7-3-17-6-20-8-16-2-3-8-3-2-1-23 6-31 9-28 7-15 4-1 2 7 20 6 12 11 9 7 1-4 1-2 12-3 6-6-2-11-7-6-8-5-19-3-20v-6l-18 5-11 2h-5l-4-11-6-35v-6l15-5 60-16 36-9z" fill="#CEC1A2"/>
<path transform="translate(837,751)" d="m0 0h27l25 1-3 10-10 23-3 6-2 1h-10l3 21 4 31 2 8 3 19 3 5 10 6 15 6 1 1v5h-34l-10-1 2-9 3-3-1-6-10-19-7-14-1-1h-16l-10 19-7 15 2 4 8 4 13 5 1 6h-17l-27-3 2-6 5-9 7-24 4-12 4-11 4-18h-31l-1-1-16-3-6-5-2-5v-13l5-12 2-2 30 3 5 3 7 2h4l-10-5 1-4 10 3 13 2 2-5z" fill="#385195"/>
<path transform="translate(1100,466)" d="m0 0 5 1 6 5 5 6-1 6-7 11-11 14-3 9-3 27-1 1-1 17-1 10-1 11-4 1-6-2-46-1-3 29-4 39-1 5h-1v-18l2-14 3-33 1-2v-15l1-11v-26h-2l-3-17-5-10-5-5-12-9-1-3 3-8 2-9h39l4-1 16-1 16 3h9l5-5z" fill="#1D1B53"/>
<path transform="translate(1303,516)" d="m0 0h1l1 11 1 2v7l2 5 8 2h14l5 2 1 5 18 6 3 3 4 11 5 21 1 7v10l-8 12-4 16-2 20-4 1h-38l-10-1-1-14-4-33-3-3-12 24-7 10-4 2 1-8-4 1-6-4-2-3 1-6 7-10 15-40 6-10 5-1 7 1v-6l1-3 1-25z" fill="#72D1E4"/>
<path transform="translate(568,119)" d="m0 0h171l279 1h416l2 23 2 65 1 89v443l-1 76v35l-1 31v29l-1 31-2 15-2 7h-1v-841h-650l-339-1v-1l59-1z" fill="#35A7B3"/>
<path transform="translate(1226,657)" d="m0 0h8v90l-41 1-48-1-2-2 1-30 1-57 11 1 4 3h14l8-2h9l9 2 19-2v-2z" fill="#73D2E5"/>
<path transform="translate(1430,965)" d="m0 0 1 3-4 2-15 1-30 1h-23l-36 1h-55l-13 1-63-1h-153l-41 1h-58l-106 1h-91l-61-1-40-1h-155l-69-2h-33l-81-1h-79v-2l106-1 1094-1z" fill="#31A5B2"/>
<path transform="translate(1057,628)" d="m0 0 2 2 9 41 5 26 6 36 5 27 2 12 3 19-9 4-15 3-3 6-1 1h-33l-3-9 1-4 3-4 7-41 4-33 1-4v-12l4-29 6-25 5-15z" fill="#DCF6FD"/>
<path transform="translate(209,771)" d="m0 0h142l5 4 4 7v13l-3 6-6 5-10 2h-133l-7-4-4-5-1-2v-14l3-6h2l1-3z" fill="#1B819C"/>
<path transform="translate(109,125)" d="m0 0h1v842l-2-2-2-8-1-13-1-46v-240l-1-27-2-23v-125l1-42v-195l1-10 1-26 1-49 1-26 1-8z" fill="#37AAB5"/>
<path transform="translate(1128,521)" d="m0 0h127l4 1-2 31h-6v-25l-87-1v32l-1 12h66l3 2v2l-2 2v2h-142v7h-1v-19l1-4 1-17 1-1 2-18 1-5z" fill="#4BC7C4"/>
<path transform="translate(1240,180)" d="m0 0h120l7 1 6 4 4 5 1 8-2 7-4 5-6 3-18 1h-115l-8-2-5-6-1-2v-11l3-7 4-4 3-1z" fill="#233165"/>
<path transform="translate(1024,519)" d="m0 0h1l2 9v8h2l1 6v20l-1 14v12l-2 2v-11h-77l-5-1v-56l1-1h78z" fill="#49BFC8"/>
<path transform="translate(939,341)" d="m0 0h132l18 1h194l16 1 10 5 6 10-1 4-4-7-6-5-15-5-65-1h-346l-133 1-10 1-9 4h-2v2l-3 3-2 7v15l2 16-2 35v113l-1 25-1 65 2 61 1 23-1 21v43l2 13 3 5v2l5 1h3l1 3-2 1h-15l-3-5-1-9-1-24-1-163v-225l2-16 4-9 5-5 8-4 5-1 14-1h92z" fill="#08A4A8"/>
<path transform="translate(201,423)" d="m0 0h35l10 2 9 6 7 10 3 7v19l-4 11-9 10-10 5-3 1-12 1h-26z" fill="#172F5D"/>
<path transform="translate(194,321)" d="m0 0h17l3 4 9 37 1 2h2l12-36 4-6 2-1h8l3 4 9 29 3 9h2l3-10 7-25 3-6 2-1h14l-1 7-8 26-12 38-2 1h-13l-3-5-10-35-2-4v-4h-2l-4 17-8 27-2 3-3 1h-11l-3-4-15-50-5-16z" fill="#162E5B"/>
<path transform="translate(1092,620)" d="m0 0h153l1 1 1 10v13l-1 1-20 1h-37l-94-1-3-2z" fill="#CFC2A2"/>
<path transform="translate(1026,800)" d="m0 0 2 4 34 1 34-1 4-1 1-2 2 3 184 1v8l-1 1h-366l-46 1-10 1-1-3v-8h162z" fill="#38B8BE"/>
<path transform="translate(661,813)" d="m0 0 3 1 153 1-4 17-4 9h-95l-18-2-9-3-4-3-3-1v-2l-5-2-12-11z" fill="#06959A"/>
<path transform="translate(1351,661)" d="m0 0 4 1 4 10 1 6v12l-4 35-3 32v16l6 27 2 13 5-3 1-4 5-1 1 5-5 6-6 4-1 3-1 35 1 9 3 6v2l3 1-17 1h-33l1-7 9-3 19-5-3-7-3-19v-10h3v-2h2l1-13-1-14-4-21v-10l1-15 3-21 3-20 1-1 1-11-1-13-2-9-5-9-2-3z" fill="#12123D"/>
<path transform="translate(568,119)" d="m0 0h171l279 1h412l3 1 2 54-2 153h-1l-1-205h-650l-339-1v-1l59-1z" fill="#2097A8"/>
<path transform="translate(351,319)" d="m0 0h15v15l-1 10 10-3h9l7 3 5 6 3 7v19l-6 11-7 5-5 1h-10l-7-4-1 4h-11l-1-1z" fill="#162E5C"/>
<path transform="translate(409,443)" d="m0 0h14l6 2h11l2 2v5l-4 2-2 11-2 5-7 3-17 2-2 7h26l6 4 1 2v11l-3 5-9 6-4 2h-16l-8-3-6-6v-7l2-2 1-16 3-4v-5l-5-5 1-12 8-7z" fill="#17325E"/>
<path transform="translate(1326,702)" d="m0 0h2l2 66 4 27 6 37v4l-6 3-6 1h-18v-20l2-20v-14l-1-3v-14l4-20 9-44z" fill="#31B5BA"/>
<path transform="translate(837,751)" d="m0 0h27l25 1-3 10-10 23-3 6-2 1h-10l-1 2v-2h-8l-28-4-9-3-12-3-7-7-6-1v-1h8l5 3 7 2h4l-10-5 1-4 10 3 13 2 2-5z" fill="#06959A"/>
<path transform="translate(205,772)" d="m0 0h15l-1 3h40v1l-7 1-41 1-5 3-3 7v7l5 5h11l2-2 1 2 10 1-1-12 1-8h3v21l13-2 2-2 1-16 2 1 1 6v12l5-1 2-3v-16l4 1 2 19 9 1v-2l-5 1 3-4 1-16h3v17l-1 3h5l1-16 2 3v11l1 1h5l1-1v-10l-3-9 4 1 2 1 2 17 1 2 9 1-3-3v-12l1-5 5-1-2 10v7l2 3 3 1v-4h2v2l7-2 3-1-1-15h4l1 16 4-1 1-12 4-4 2 1-2 3v12l4 1-1-16h5l1 1v10l-2 7 5-3 2-3v-16l6 2 2 2v13l-3 6-6 5-10 2h-133l-7-4-4-5-1-2v-14l3-6h2l1-3z" fill="#19819B"/>
<path transform="translate(956,543)" d="m0 0h70l3 1v23l-1 5h-75l-1-4 1-21 1-3z" fill="#72D1E4"/>
<path transform="translate(1226,182)" d="m0 0h13l-4 2v2l2 1-5 3-2 7 1 7 7-1 16 1 2-4 2-11h4l1 10 2 5 5-1v-8l1-7 7-1v10l2 8 8-1 4 1v-5l5-2 1 8 9-1 11 1 5-5 3 1 1 2 19 1 2-7 2 1 2 5 13-1v-19l-1-2 7 1 6 7 1 8-2 7-4 5-6 3-18 1h-115l-8-2-5-6-1-2v-11l3-7z" fill="#131A44"/>
<path transform="translate(778,645)" d="m0 0 5 1-3 8-1 6 10-1 4-10 5-1 12 4 13 2v9l-3 17-5 9-1 3h-3l-2 11-2 3h-7l-7-6-5-10-3-1-5 3h-5l-2-3v-9l-2-1 2-3 1-8v-18z" fill="#CFC09F"/>
<path transform="translate(1184,678)" d="m0 0h8l5 3 3 3 3 12 1 6 6 5 10 14 2 5v4h-63l-1-5 6-11 10-12h2l-1-8 4-10z" fill="#DCF6FD"/>
<path transform="translate(565,117)" d="m0 0h40l246 1h212l107 1 51 1v1h-236l-246-1h-171l-77 1 109 1v1h-310l-15-1 1-2 97-1h36l92-1z" fill="#35A8B4"/>
<path transform="translate(1214,324)" d="m0 0h20l72 1 7 3-2 1-105-1-471 1-13 2-5 3-12 12-6 11h-3l1-9 7-11 10-8 8-3 6-1z" fill="#0FA4AA"/>
<path transform="translate(708,367)" d="m0 0h1v101l-1 82v43l1 64v51l-1 25v6l-2-2-2-11-1-28-1-31 1-292 2-6z" fill="#4ECBC6"/>
<path transform="translate(1092,527)" d="m0 0h29l25 1 9 3v9l-1 1-56 2 53 1 3 3v6l-15 8-16 3h-9l-14-5-4-3v-2h-6v-9z" fill="#73D2E5"/>
<path transform="translate(920,813)" d="m0 0h367l-1 3-139 1-35 4-22 1-10 1h-19l-11-2h-13l-9 1h-19l-18-1-10-4-2-1h-45l-28 1-31 1-10-2v-1l13-1z" fill="#08A4A8"/>
<path transform="translate(771,625)" d="m0 0h9l5 10v4l9-4h15l10 5 8 9 1 3-3 3-19-3-8-3h-4l-4 10-1 1h-10l1-10 2-4-5 1-2 3v18l-2 10-6 8h-7l-7-3-5-4-1-5 11-1 2-2 1-37 4-6z" fill="#121440"/>
<path transform="translate(316,341)" d="m0 0h9l8 3 5 5 5 10v9l-3 2-28 1-1 4 2 5 3 2h8l11-3h7l-1 7-6 5-7 2h-13l-8-2-5-4-6-10-1-3v-13l4-9 5-6 7-4z" fill="#17335E"/>
<path transform="translate(289,443)" d="m0 0h14l6 3 5 4 4 8v12l-1 1-11 1h-20l2 8 3 3h15l3-2h7v7l-5 4-6 3h-17l-9-6-5-6-3-7v-14l6-12 5-4z" fill="#183461"/>
<path transform="translate(1024,618)" d="m0 0h1l-1 14-2 11-38 1h-39l-1-1 1-21h79z" fill="#CEC3A4"/>
<path transform="translate(452,443)" d="m0 0h6l5 7 5-4 7-3h9l7 4 5 8v39l-2 1h-13l-1-41h-11l-2 3-1 6-1 32h-15v-48z" fill="#162F5D"/>
<path transform="translate(219,435)" d="m0 0h12l7 2 7 6 4 10-1 13-4 10-6 5-5 1h-13l-3-3v-35l1-8z" fill="#DDF6FD"/>
<path transform="translate(1305,497)" d="m0 0h16l16 5 4 6 1 9-4 12-3 12h-11l-7-3-1-12 1-7-12 1-1-4h-2v-12l2-6z" fill="#13133D"/>
<path transform="translate(284,321)" d="m0 0h14l-1 7-8 26-12 38-2 1h-13l-3-5 1-5 2-1 1-5h2l1-4 1 2 4-6v-11l7-27 4-9z" fill="#16305C"/>
<path transform="translate(340,443)" d="m0 0h12l8 4 1 1v7l-7 1v-2l-4-1h-9l-3 4-1 3 11 3 10 5 4 4v8l-4 9-5 4-6 2h-11l-9-4-3-5 2-4 7 1 3 1h11l3-2-1-5-11-2-9-6-3-3-1-9 4-8 4-4z" fill="#131A46"/>
<path transform="translate(211,777)" d="m0 0h27l10 1-5 7-3 13-2 3h3l1-5 3-6 2-10 4-1 1-1h6v3h3l1 3v13l-3 4h-5l-2-18-1 15-3 3-3 1h-10v-21h-3v20h-10-3-11l-6-6v-7l3-7 3-3z" fill="#68CEDB"/>
<path transform="translate(1128,521)" d="m0 0h127l4 1-2 31h-6v-25l-87-1-1 5-5-2v-2h-64l-1-1v-5z" fill="#45B4C0"/>
<path transform="translate(194,321)" d="m0 0h17l3 4 9 37v9h4l2-9h1v9l-2 5v11l-1 1h-7l-7-3-12-39-7-23z" fill="#152E5B"/>
<path transform="translate(1273,805)" d="m0 0h14v8l-1 1h-150v-1l13-2 3-3-6-1v-1z" fill="#32A7B3"/>
<path transform="translate(1337,836)" d="m0 0h4l4 23 2 3-8 3-20 5-1 8h-39v-1h31l1-3-2-9-4-2 3-21 2-2 18-1 7-2z" fill="#D5F1F7"/>
<path transform="translate(858,840)" d="m0 0h9l3 12 3 19 3 5 10 6 15 6 1 1v5h-34l-10-1 2-9 3-3-1-6-10-19-2-5 1-5 5-5z" fill="#17315D"/>
<path transform="translate(1273,276)" d="m0 0 9 1 6 4 3 5 1 4v11l-4 6-7 4-5 2h-7l-7-3-5-6-1-3v-14l4-6 7-4z" fill="#CFBF9E"/>
<path transform="translate(771,886)" d="m0 0 11 1 2 1-1 3h-14v2l9 1h12v-3l21 1 7 1h18l1 2-8 1 17 3 29 3-3 3h-42l-41-2-31-4-9-2-6-4 1-2 21-3z" fill="#9BEEFB"/>
<path transform="translate(1045,421)" d="m0 0h6l6 4 12 2 4 2 5 10 1 3v12l-7 8-5 4h-7l-4-8v-14h-8l-3-2-2-9v-11z" fill="#131540"/>
<path transform="translate(799,523)" d="m0 0h8l9 4 4 5 1 3v13l-4 6-7 5h-12l-8-6-3-6v-12l3-6 6-5z" fill="#14A9AE"/>
<path transform="translate(1320,724)" d="m0 0h1l-1 12-2 36-1 15v9l-2 2-2 16 5 1 18 1 1-3 3 19v4l-6 3-6 1h-18v-20l2-20v-14l-1-3v-14l4-20z" fill="#069299"/>
<path transform="translate(1168,402)" d="m0 0h16l5 4 4 8v8l-3 6-5 4-7 3h-10l-6-4-4-6-1-4v-9l7-8z" fill="#CFC2A2"/>
<path transform="translate(1016,526)" d="m0 0h7l4 6 1 8-1 1h-73v-9l4-3 35-2z" fill="#73D2E5"/>
<path transform="translate(1087,567)" d="m0 0h1l1 5h142l1 3-2 2v2h-142v7h-1z" fill="#33A5B2"/>
<path transform="translate(856,760)" d="m0 0h9l3 4v7l-3 7-6 4-7 2 1 6h-13l-16-2-9-3-12-3-7-7-6-1v-1h8l5 3 7 2h4l-10-5 1-4 10 3 13 2 2-5 1 4-4 3h-6v2l4 2 3 3v2l10 2 1-11v-3h-2l2-4 9-4 4-4z" fill="#08A4A8"/>
<path transform="translate(817,1026)" d="m0 0h10l8 3 3 3v5l-2 2-5 1-18 1h-28l-12-2-15-1-2-2v-3l3-1 11-1 6-2 19-2z" fill="#74D3E5"/>
<path transform="translate(294,779)" d="m0 0h25l6 1 9-1h16l3 4v11l-5 6h-3l1-7v-10h-4v15l-5-1v-12l1-3-3 3-1 12-5 1-1-2v-14h-4l1 2v13l-5 3h-5v-2h-2v4l-4-1-2-3v-7l3-10-5 1-1 17 3 1v2h-9l-2-3z" fill="#72D1E4"/>
<path transform="translate(661,813)" d="m0 0 3 1 136 1-4 2-1 3-2 2-6 1-44-2-13 1-9 1h-28l-25-3-7-5z" fill="#08A3A8"/>
<path transform="translate(1092,527)" d="m0 0h29l25 1 9 3v9l-1 1-56 2v1h-7v-10z" fill="#70D1E2"/>
<path transform="translate(108,164)" d="m0 0h1l1 158v158l-1 77h-1l-1-63v-311z" fill="#1B99A8"/>
<path transform="translate(108,581)" d="m0 0h1v331h-1l-2-54-1-113 1-104 1-53z" fill="#1596A6"/>
<path transform="translate(202,891)" d="m0 0h10l7 3 4 6v14l-3 5-7 4h-12l-5-4-4-8v-9l3-6 5-4z" fill="#72D1E4"/>
<path transform="translate(927,406)" d="m0 0 1 3h2l3 18v5l-10-3-56-1-5-3v-6l1-1h34l20-1 5-8z" fill="#A1F0FC"/>
<path transform="translate(1057,628)" d="m0 0 2 2 9 41 1 11h-23l-2-1 1-12 6-25 5-15z" fill="#DDF6FD"/>
<path transform="translate(1221,120)" d="m0 0h209l3 1 2 54-2 153h-1l-1-206h-276v-1z" fill="#19829D"/>
<path transform="translate(1043,681)" d="m0 0 26 1 2 5 3 18-1 4h-31l-1-11z" fill="#D9F6FD"/>
<path transform="translate(452,443)" d="m0 0h6l5 7 3-3 2 1-3 3 3 4-2 8-1 32h-15v-48z" fill="#172E5D"/>
<path transform="translate(815,393)" d="m0 0h23l1 3v8l-1 1h-41l-20-1-4-1-4 1-1-9 1-1z" fill="#92E8F6"/>
<path transform="translate(374,443)" d="m0 0h11v52h-13l-1-1v-49z" fill="#16305D"/>
<path transform="translate(778,645)" d="m0 0 5 1-3 8-1 6h10v1l-9 1v3l6 5 8 14 3 5 3 2 6 2 2 2-1 5h-2v5h-6l-6-5-5-10-3-1-5 3h-5l-2-3v-9l-2-1 2-3 1-8v-18z" fill="#D86336"/>
<path transform="translate(794,635)" d="m0 0h15l10 5 8 9 1 3-3 3-19-3-8-3h-4l-4 10-1 1h-10l1-10 4-5h2l-1-4 4-4z" fill="#0F0E3A"/>
<path transform="translate(409,443)" d="m0 0h14l6 2h11l2 2v5l-4 2-2 11-2 5-3 2-22 2h-3l-1 4-4-1 4-8 3-1 9 2 1-4 6-3-1-7-2-3h-14l-4 1h-2l1-5 3-4z" fill="#163360"/>
<path transform="translate(807,856)" d="m0 0 4 1v3l3 1-3 6v10l5 4 18 7 1 6h-17l-27-3 2-6 5-9 2-6h4z" fill="#131743"/>
<path transform="translate(289,780)" d="m0 0 4 1 2 1 2 17 1 2 9 1-3-3v-12l1-5 5-1-2 10v7l2 3h9l-3 3-11 1h-26l-44-1-8-1v-1l18-1 5-3 1-16 2 1 1 6v12l5-1 2-3v-16l4 1 2 19 9 1v-2l-5 1 3-4 1-16h3v17l-1 3h5l1-16 2 3v11l1 1h5l1-1v-10z" fill="#2C6295"/>
<path transform="translate(890,588)" d="m0 0h42l1 1v13h-43l-1-1v-12z" fill="#42BEC6"/>
<path transform="translate(832,589)" d="m0 0h44v12l-1 1h-43l-1-2v-10z" fill="#4EC9C8"/>
<path transform="translate(774,589)" d="m0 0h45v12l-1 1h-29l-13-1-1-1z" fill="#50C9C9"/>
<path transform="translate(1294,862)" d="m0 0h11v2l4 1 2 5 1 7h-49l-2-3 3-3z" fill="#D46136"/>
<path transform="translate(1181,522)" d="m0 0h78l-2 31h-6v-25l-58-1-21-1v-3z" fill="#1797A7"/>
<path transform="translate(367,528)" d="m0 0h12l2 1 1 3v19l-5 4-8 1-4-2-5-6-1-9 5-9z" fill="#8FE6F3"/>
<path transform="translate(1347,861)" d="m0 0 9 1 3 2 1-2 3 10 1 3 3 1-17 1h-33l1-7 9-3 19-5z" fill="#D86135"/>
<path transform="translate(289,443)" d="m0 0h14l6 3 5 4 4 8v12h-12v-2l-12-3v-1l13-2-1-5-6-4h-7l-5 3h-9l1-6 2-4z" fill="#121642"/>
<path transform="translate(370,352)" d="m0 0h11l2 2 1 10v11l-3 7-2 1h-9l-4-5-1-11 1-11z" fill="#D1F2FB"/>
<path transform="translate(272,777)" d="m0 0h8l7 3 5 5 1 4v10l-2 2h-5l-2-2v-11l-2 13h-5l1-20h-3v16l-2 3h3v2h-9l-1-1-2-19-3-2 11-2z" fill="#6DCDDF"/>
<path transform="translate(863,805)" d="m0 0h121v1l-51 1 7 1-1 2h-1l1 2h-25l-8-1-10 1h-32l-1-1z" fill="#32B7BB"/>
<path transform="translate(898,455)" d="m0 0 3 1 2 9 14 2-1 4-9 10-5 7-6 1-1-1v-11h-7l-5-4 1-5 5-2 8-1 3 1v-2h-2z" fill="#CFBE9E"/>
<path transform="translate(232,777)" d="m0 0 16 1-5 7-3 13-2 3h3l1-5 3-6 2-10 4-1 1-1h6v3h3l1 3v13l-3 4h-5l-2-18-1 15-3 3-3 1h-10l-1-21z" fill="#96EBF8"/>
<path transform="translate(465,528)" d="m0 0h11l1 1v22l-2 3-3 1h-9l-6-7-1-2v-8l3-6 3-3z" fill="#CBF2FA"/>
<path transform="translate(865,877)" d="m0 0h7l9 4 5 3 10 2 6 3v5h-34l-10-1 2-9 3-3h2z" fill="#15204B"/>
<path transform="translate(105,848)" d="m0 0h1l1 10 1 33 1-28h1v104l-2-2-2-8-1-13-1-46v-49z" fill="#33A7B3"/>
<path transform="translate(285,528)" d="m0 0h10l6 3 2 4v12l-5 6-4 2h-9l-2-2v-21z" fill="#142F57"/>
<path transform="translate(709,441)" d="m0 0h1l2 325 1 24 2 12 1 1h17l1-2v2l3 1-1 3h-17l-5-2-2-2-1-5-1-23-1-150z" fill="#36A8B4"/>
<path transform="translate(1060,427)" d="m0 0h9l4 2 5 10 1 3v12l-7 8-5 4h-7l-1-4 3-5 2-5h2l1-4v-10l-6-5z" fill="#12143F"/>
<path transform="translate(1052,354)" d="m0 0h17v1l-50 3-18 2-7-1-8-1-20-1h-228l3-2z" fill="#4CC3CC"/>
<path transform="translate(1092,781)" d="m0 0 4 4 5 12v7l-5 1-35 1 2-5 2-4 18-4 5-2 1-5h2z" fill="#141543"/>
<path transform="translate(1024,519)" d="m0 0h1l2 9-1 4-3-5h-71l-3 5-2 13h-1v-24h78z" fill="#40ADBB"/>
<path transform="translate(316,341)" d="m0 0h9l8 3 5 5 5 10v9h-8l-3-4-5-1v-2l4-1 1-4-4-2-5-3-11-2-5 1-5 3h-2l1-4 8-6z" fill="#131B46"/>
<path transform="translate(223,178)" d="m0 0h6l6 7v9l-3 6-4 2-7-1-2-5-5 4-4 2-6-1v-21l3 1 1 14 2 2 4-1 1-1 1-10 5-5z" fill="#1D315C"/>
<path transform="translate(1045,442)" d="m0 0 9 1 3 1v14l2 7-3 1-1 2-7 1-10-4-1-1v-11l3-6z" fill="#CFB897"/>
<path transform="translate(403,446)" d="m0 0 2 1-3 3-1 4 6-2h14l3 4 1 7-4 3-3 1-1 3-11-1-3 4v-4l-5-2-2-3 1-12z" fill="#152E5A"/>
<path transform="translate(277,895)" d="m0 0h9l1 1-1 9-5 9-7 5-3 1h-7l-2-11-3-5v-6l9 3 5 4z" fill="#131A45"/>
<path transform="translate(1017,791)" d="m0 0h9v11l-1 3-38 1 2-9 19-3z" fill="#141644"/>
<path transform="translate(1361,377)" d="m0 0 4 1 1 5v3l3 3 6-2 4 4-1 4h-3l-1 3h-7l-1 9-1 2-4-1-2-8-6-1-4-3v-6l5-3h5l1-9z" fill="#5ACDD0"/>
<path transform="translate(986,805)" d="m0 0 3 2-11 1-23 1-3 1 3 1 16 1v1l-97 2-10 1-1-5h39l8-1 6 1h12l1-2h10l1-1h-7l-1-2z" fill="#35A7B3"/>
<path transform="translate(976,722)" d="m0 0h17l15 1 3 3-1 3-7 1h-49v-7z" fill="#73D2E5"/>
<path transform="translate(266,179)" d="m0 0h8l6 5 1 2v8l-6 7-2 1h-6l-7-6-2-4 1-6z" fill="#233769"/>
<path transform="translate(953,702)" d="m0 0h55l8 1v5l-37 1h-19l-7-1z" fill="#73D2E5"/>
<path transform="translate(746,356)" d="m0 0h220l20 1 11 2h14v1l-9 2-16 1-1-3-25-1-6-1h-203l-13 1-8 6 2-4 5-4z" fill="#92E8F6"/>
<path transform="translate(108,164)" d="m0 0h1l1 181-1 14-2-1v-175z" fill="#1696A6"/>
<path transform="translate(1108,472)" d="m0 0 5 3 3 3-1 6-7 11-11 14-4 10-2 1 1-11 1-9 8-13 4-8 1-5h2z" fill="#121540"/>
<path transform="translate(1037,378)" d="m0 0h16l1 4-9 3-16 3-4 1h-9v-1l-9 1-17 4-7 2h-7l-1-2 43-11 15-3zm-65 16h3v2h-3z" fill="#DCF1F3"/>
<path transform="translate(1303,835)" d="m0 0 5 1 1 6-3 21-16-1v-9l2 2 1-13 1-2h6l1-4z" fill="#11103A"/>
<path transform="translate(437,528)" d="m0 0 5 1 4 9 2 13 1 3h-15l-9-1 6-13z" fill="#96ECF8"/>
<path transform="translate(437,487)" d="m0 0 4 1v11l-3 5-9 6h-22l-6-3 4-6 4 1h11l7-2 4-4 1-3h2l-1-4z" fill="#111540"/>
<path transform="translate(799,531)" d="m0 0 9 1 6 4 1 1v8l-5 6-4 2h-6l-6-6v-9l4-6z" fill="#D4F4FC"/>
<path transform="translate(1028,376)" d="m0 0 14 1v1l-17 4-14 3-68 17-11 1 2-2 43-12 38-10z" fill="#D96235"/>
<path transform="translate(855,394)" d="m0 0h31l2 3v7l-9 1h-12l-12-1-2-4v-5z" fill="#34B9BC"/>
<path transform="translate(1028,567)" d="m0 0h1v21h-1v-11h-82l1-4 80-1z" fill="#259BAB"/>
<path transform="translate(1170,408)" d="m0 0h11l4 5v8l-5 6-2 1h-8l-3-1-3-7 2-8z" fill="#D96235"/>
<path transform="translate(1304,519)" d="m0 0h13v13l1 6 8 2 9 1v4l-6-1h-13l-9-3-2-5v-8l-1-1z" fill="#DDF6FC"/>
<path transform="translate(1303,516)" d="m0 0h1l1 11 1 2v7l2 5 8 2h14l5 2 1 5-2 1-33 1z" fill="#35A2B0"/>
<path transform="translate(805,769)" d="m0 0 10 3 13 2 2-5 1 4-4 3h-6v2l4 2 3 3v2l18 4v1l-15-1-10-2-18-5-7-7-6-1v-1h8l5 3 7 2h4l-10-5z" fill="#35A8B4"/>
<path transform="translate(1007,660)" d="m0 0 4 1-1 5-12 1h-37l-8-1v-5z" fill="#73D2E5"/>
<path transform="translate(815,393)" d="m0 0h23l1 3v8l-1 1h-23l-3-2-2-7-2-2z" fill="#73D2E5"/>
<path transform="translate(246,178)" d="m0 0h5l5 7 1 10-4 6-1 1-7-1-5-5-3-6v-3h4l2-6z" fill="#1D3663"/>
<path transform="translate(405,528)" d="m0 0h11l4 3v7l-4 6-6 5h-3v4h-5l1-24z" fill="#9AEEFB"/>
<path transform="translate(770,418)" d="m0 0h16l16 1 1 1v8h-33z" fill="#3BBBC1"/>
<path transform="translate(863,418)" d="m0 0h30l1 3-1 5h2v2h-28l-5-3v-6z" fill="#3EBDC3"/>
<path transform="translate(996,349)" d="m0 0h21l5 2-1 3h-101v-1l34-2 34-1z" fill="#187F9A"/>
<path transform="translate(311,689)" d="m0 0 7 3 3 5-2 5-9 2h-6l-1-1-15-1v-6l3-2 13 1 1-3z" fill="#96EAF7"/>
<path transform="translate(953,682)" d="m0 0h65l-1 5h-63z" fill="#73D2E5"/>
<path transform="translate(816,419)" d="m0 0h31l2 1 1 7-2 1h-29l-3-1-1-7z" fill="#3FBDC3"/>
<path transform="translate(352,778)" d="m0 0 6 2 2 2v13l-3 6-6 5-3 1h-22l4-1v-2l-2-1 13-2 8-3 3-4z" fill="#345492"/>
<path transform="translate(813,528)" d="m0 0 4 1 3 3 1 3v13l-4 6-7 5h-12l-6-4v-2l14-1 6-4 2-3v-8l-3-4v-2h2z" fill="#129DA3"/>
<path transform="translate(161,967)" d="m0 0h170v1l-106 1-1 1h-43l-44-1v-1z" fill="#3DB7BB"/>
<path transform="translate(1228,575)" d="m0 0 2 1v3h-142v7h-1v-9l2-1 123 1h16z" fill="#67CFDB"/>
<path transform="translate(1273,285)" d="m0 0h7l3 3 1 8-3 6-5 3-7-1-4-5 1-6 5-7z" fill="#DEF7FE"/>
<path transform="translate(1320,724)" d="m0 0h1l-1 12-2 36-1 15v9l-2 2-2 4-1-16-1-3v-14l4-20z" fill="#08A0A6"/>
<path transform="translate(228,529)" d="m0 0h5l4 7 2 12v5h-5v-7l-4 1-5-1-2 6-5 2h-5l1-2 4-2 4-7 4-12z" fill="#7BD9E6"/>
<path transform="translate(1187,657)" d="m0 0h39v1h-7v2l-7 2-12 1-9-2h-9l-8 2h-14l-4-3-9-1v-1z" fill="#9EF1FD"/>
<path transform="translate(1058,426)" d="m0 0h8v1h-6l3 7 5 4v10l-2 4-2 1-2 5-3 5-2-3-1-2v-17l3-8h-4l1-5h2z" fill="#1D1C54"/>
<path transform="translate(1200,874)" d="m0 0h53l-2 3-16 1-1 2 3 1h-17l-18-2-4-2z" fill="#73D2E5"/>
<path transform="translate(651,753)" d="m0 0 4 4-1 9h13l1 5h-10l-3-1 1 3v10h-6v-13l-4 1h-7l-2-2v-3l14-1-1-11z" fill="#3ABAC1"/>
<path transform="translate(428,453)" d="m0 0 3 1 2 9-1 8-1 1-22 2h-3l-1 4-4-1 4-8 3-1 9 2 1-4 6-3v-8z" fill="#10123D"/>
<path transform="translate(1064,185)" d="m0 0h7l3 3 3 4-2 10-4 2h-7l-4-3v-10z" fill="#D2F4FC"/>
<path transform="translate(252,529)" d="m0 0 3 1 3 5v2h5l3 4h2v-12l2 2-1 22h-4v-9h-4v2l-6 2-3 5h-2v-14l1-9z" fill="#9DE2EC"/>
<path transform="translate(409,491)" d="m0 0h11l11 2-1 5-4 4-6 1h-11l-4-4 1-6z" fill="#CAF1FA"/>
<path transform="translate(338,890)" d="m0 0h4l-2 14-3 19h-6l-1-15-2-3 1-4z" fill="#18325E"/>
<path transform="translate(248,695)" d="m0 0h7v2l4-1h13v2l5-1v5l-1 1h-6v-2l-5 2-17 2-2-1h-9l5-6z" fill="#8FE7F3"/>
<path transform="translate(209,771)" d="m0 0h122v1l-65 1 5 1v1h-52v-2l-10-1z" fill="#38ADB7"/>
<path transform="translate(475,443)" d="m0 0h9l7 4 4 6-1 7-3 1-7-9-1-4h-5v4l-11 2-3-3 4-5z" fill="#121742"/>
<path transform="translate(465,528)" d="m0 0h11v4l-12 1-3 6v6l2 6h6l2-3 2-7h3l1 2v8l-2 3-3 1h-9l-6-7-1-2v-8l3-6 3-3z" fill="#24819C"/>
<path transform="translate(316,782)" d="m0 0h7l2 2v13l-5 3h-5v-2h-2v4l-4-1-2-3v-7l2-8h3l1 13 3-2z" fill="#9BEFFB"/>
<path transform="translate(805,589)" d="m0 0h14v12h-22l2-11z" fill="#4CC9C5"/>
<path transform="translate(202,891)" d="m0 0h10l7 3 4 6v14l-3 5-5 3h-9l-3-2 10-1 4-2 2-4-1-11-5-6-4-2h-7l-5 3-2 3v12l5 9-4-2-4-8v-9l3-6 5-4z" fill="#263971"/>
<path transform="translate(1301,656)" d="m0 0h52l1 3-11 3h-27l-12-2z" fill="#D96235"/>
<path transform="translate(288,531)" d="m0 0h7l4 5 1 2v7l-6 7h-7v-16z" fill="#92E9F5"/>
<path transform="translate(1310,820)" d="m0 0 2 4 3 3 5 2v2l9 2 6 3-1 3-6 1h-18z" fill="#1B829D"/>
<path transform="translate(289,780)" d="m0 0 4 1 2 1 2 17 1 2 9 1-3-3v-12l1-5 5-1-2 10v7l2 3h9l-3 3-11 1h-16v-3h2l1-3v-10z" fill="#304F8A"/>
<path transform="translate(420,532)" d="m0 0 11 2 3 1-6 14-2 3 4 2h-7l-5-5-2-4-2-1 4-4z" fill="#97ECF8"/>
<path transform="translate(807,856)" d="m0 0 4 1v3l3 1-3 6v10l5 4 8 3-3 2-9-2-2-4-9-1-5 3 4-12h4z" fill="#19305F"/>
<path transform="translate(1280,187)" d="m0 0h3v3l6-3h4l-1 11-2 6-4 2h-6l-2-6v-10z" fill="#293A72"/>
<path transform="translate(229,362)" d="m0 0h1v9l-2 5v11l-1 1h-7l-6-2 1-4 4 1-2-8v-5l-1-2 6-1 1-3v7h4z" fill="#1C1B53"/>
<path transform="translate(766,805)" d="m0 0 12 3 7 1 1 1 31 1-1 3h-44l-4-1v-2l-3-1v-2l-2-1z" fill="#4EC7C6"/>
<path transform="translate(335,379)" d="m0 0h7l-1 7-6 5-2 1h-15v-2l9-3h-3l-3 1-5-2-1-2 8-1 8-3z" fill="#16234E"/>
<path transform="translate(367,528)" d="m0 0h12l2 1v21l-5 4h-7l1-2 4-1 5-13v-7l-13 2-2 5v8l4 5v2l-4-1-4-4-1-9 5-9z" fill="#1E4B76"/>
<path transform="translate(831,767)" d="m0 0 1 2 6 1-1 3h2l1 8-1 7-9-2-5-5-4-3v-2l7-1 2-2z" fill="#1596A6"/>
<path transform="translate(194,697)" d="m0 0h28 3 9v5l-2 2h-7l-4-1h-9l-1-2-3 1v-3l-2 3h-11z" fill="#3DB0BA"/>
<path transform="translate(355,691)" d="m0 0 7 1 9 2-1 3h-2l-2 6-1-2 1-4h-2l-1 5-5 1-3 2-9-1 2-8 4-1 1-3z" fill="#96EBF8"/>
<path transform="translate(232,777)" d="m0 0 16 1-5 7-3 13-2 3h3l1-5 3-6h1v11l-1 1h-10l-1-21z" fill="#6ECFE0"/>
<path transform="translate(262,463)" d="m0 0h2v8l-5 10-7 7-6 1-2-1v-5l7-5 2-3h2l1-5 3-5z" fill="#121742"/>
<path transform="translate(373,422)" d="m0 0h8l5 2 1 1v7l-1 3-13 1-3-3v-8z" fill="#141B48"/>
<path transform="translate(890,588)" d="m0 0h42v1l-16 1-2 1v9h-2l-1-4-14 1-6-6-1 10h-1v-12z" fill="#56CCCD"/>
<path transform="translate(309,481)" d="m0 0h7v7l-5 4-9 2h-6l-3-3-1-5 14-3z" fill="#11133F"/>
<path transform="translate(293,452)" d="m0 0h7l7 5 1 5-1 1-22 1 1-6 4-5z" fill="#CBEDF7"/>
<path transform="translate(272,360)" d="m0 0h2l2 6v11l-2 1-2 8-1 1h-8l-1 2-3-1 1-5 2-1 1-5h2l1-4 1 2 4-6v-8z" fill="#1D1C54"/>
<path transform="translate(317,774)" d="m0 0h9v2l24 1 3 3-1 3-2-3h-20l-9 1-2-1-25-1-1 3h-3l-4-2-6-2v-1l33-1z" fill="#35ADB6"/>
<path transform="translate(174,120)" d="m0 0h45l1 3h-103v-1z" fill="#36A8B4"/>
<path transform="translate(1316,372)" d="m0 0h1v90l1 30-1 4h-2l-1-28z" fill="#08A4A8"/>
<path transform="translate(413,452)" d="m0 0h8l3 4 1 7-4 3h-11l-2-3v-7h2l1-3z" fill="#C8EEF7"/>
<path transform="translate(1117,680)" d="m0 0h9l1 3-2 5h-15l-12-2-2-4 1-1z" fill="#73D2E5"/>
<path transform="translate(1026,800)" d="m0 0 2 4 12 1v1l14 1-6 3h-39v-2l-5-1v-1l21-1z" fill="#50C9C8"/>
<path transform="translate(338,781)" d="m0 0 2 1-2 3v12l4 1-1-16h5l1 1v10l-2 7-4 2h-13v-6l1 2 4-1 1-12z" fill="#66CADA"/>
<path transform="translate(1361,388)" d="m0 0h1l1 5 1-2 9-1 5-1 1 5-4 1-1 3h-7l-1 9-1 2-4-1-1-3v-15z" fill="#37B6BC"/>
<path transform="translate(800,815)" d="m0 0h17l-4 17-1-4 1-5-8 2-10-2-3-3 3-1 3-3z" fill="#1593A4"/>
<path transform="translate(437,528)" d="m0 0 5 1 4 9 2 15h-6l-1-21-4 2-6 19h-6l6-13z" fill="#18345F"/>
<path transform="translate(1246,523)" d="m0 0h13l-1 9-1 21h-6v-25l-5-2z" fill="#1B7E9B"/>
<path transform="translate(896,419)" d="m0 0h13l2 3h2v-3h8l1 7-1 1h-24l-1-2z" fill="#3BBDC0"/>
<path transform="translate(1028,536)" d="m0 0h1l1 6v20h-1v-18h-69l-3-2 1-1 69-1z" fill="#35B4BA"/>
<path transform="translate(1322,498)" d="m0 0 10 2 6 3 2 5-5-1-14 1-6 1-4-4v-3l7-1 4-1z" fill="#1D1D54"/>
<path transform="translate(769,394)" d="m0 0h21l-1 9h-7v-2l-9 2-4 1-1-9z" fill="#3DBDC2"/>
<path transform="translate(872,589)" d="m0 0h4v12h-16v-9l1-2z" fill="#31B7BB"/>
<path transform="translate(1358,188)" d="m0 0h5l3 4v11l-1 1-13 1-3-6v-7l1-3 4 1v9l3 3h2l1-5-2-4-2-1z" fill="#69CADD"/>
<path transform="translate(261,781)" d="m0 0 4 1 2 20-1 1h-17l-1-3 2-2 1-16 2 1 1 6v12l5-1 2-3z" fill="#2B93A9"/>
<path transform="translate(1151,567)" d="m0 0 5 3 73 1v1l-71 1h-28l1-2 11-3 4 1z" fill="#4BC2CB"/>
<path transform="translate(317,351)" d="m0 0h8l7 5v4l-7 1h-15v-4z" fill="#D6F3FB"/>
<path transform="translate(400,667)" d="m0 0h9l-1 11-1 2h-6l1-3-6 1-7 2 2-5 3-6z" fill="#98EDFA"/>
<path transform="translate(1041,698)" d="m0 0 1 4h31l1 7h-32z" fill="#73D2E5"/>
<path transform="translate(493,528)" d="m0 0 9 1v2h-9v18l1 5 8-2-1 3-2 1-9-1-3-4v-16l2-6z" fill="#207E9A"/>
<path transform="translate(1273,805)" d="m0 0h14v6h-24l-13-4v-1z" fill="#34B9BC"/>
<path transform="translate(1311,188)" d="m0 0h2l1 2 2-1h6l-1 3v9h2l-2 4h-3l-2-3-1-5-2 7-5-1-1-1 1-9z" fill="#3D75A5"/>
<path transform="translate(265,182)" d="m0 0h7l4 6 1 7-4 3-5-1-5-5v-7z" fill="#CFF2FA"/>
<path transform="translate(292,643)" d="m0 0 8 1 3 1 5 6v6l-2 1-1-2-4 2-5-2v-10l-4-1v3h-2l-1 10h-3v-6h2l1-5z" fill="#77C6DB"/>
<path transform="translate(1296,183)" d="m0 0h9l1 2-2 1v5h3l-1 1-1 10h-3l-1 3-4-1-2-13 2-3z" fill="#38639C"/>
<path transform="translate(493,531)" d="m0 0h8l-1 2h-4l2 2 4 17-3 2h-5l-2-5v-16z" fill="#89E5F0"/>
<path transform="translate(296,783)" d="m0 0h8v16l3 1v2h-9l-2-3z" fill="#92E9F5"/>
<path transform="translate(961,626)" d="m0 0 4 1 4 11v1h-15v-9l1-3z" fill="#D96235"/>
<path transform="translate(198,528)" d="m0 0h4l1 19 4 4 3 2v2h-11l-1-1-1-12v-13z" fill="#1F8EA2"/>
<path transform="translate(1298,361)" d="m0 0 4 1 1 1v141h-1l-1-136z" fill="#13A6AC"/>
<path transform="translate(695,355)" d="m0 0 1 2h2v6l-1 4v80l-1 8h-1z" fill="#36A8B4"/>
<path transform="translate(815,1029)" d="m0 0h14l4 2v5l-8 1h-7l-8-2 2-5z" fill="#9EF1FD"/>
<path transform="translate(1304,519)" d="m0 0h8v11l-3-1-1-4-2-1 3 13 6 4 3 1h7l1-2 9 1v4l-6-1h-13l-9-3-2-5v-8l-1-1z" fill="#C2BB9E"/>
<path transform="translate(400,691)" d="m0 0h3l-1 7-3 5h-6l3-5 1-2-5 5-5 2h-3l2-9 6-2z" fill="#83D2E6"/>
<path transform="translate(230,646)" d="m0 0h4l2 3 1-3h8v9l-3 2-7-1-3 1-3-1z" fill="#87DEEC"/>
<path transform="translate(252,776)" d="m0 0 20 1 5 1v1l-13 1-6 1v-3l-6 1-2 2-3-1-2 13-4 8h-3l2-6 2-10 4-6-8-1v-1z" fill="#2F9CAD"/>
<path transform="translate(266,783)" d="m0 0h6l2 2v13l-1 2h3v2h-9l-1-1z" fill="#98EDF9"/>
<path transform="translate(409,443)" d="m0 0h14v2l2 1-7 2v2l-4 2-7 1-4 1h-2l1-5 3-4z" fill="#121642"/>
<path transform="translate(224,782)" d="m0 0 7 1 1 18h-10l1-8z" fill="#9BEFFB"/>
<path transform="translate(903,394)" d="m0 0h12l2 5v5h-14l-1-1v-8z" fill="#42C1C3"/>
<path transform="translate(259,898)" d="m0 0 9 3 5 4 2 4-5 2h-3v2h-2v7h-1l-2-11-3-5z" fill="#18305F"/>
<path transform="translate(1239,188)" d="m0 0h4v13l5-2-1 5h-16l-2-3 1-8 2-4h2v13l3-3 1-9z" fill="#61BCD3"/>
<path transform="translate(224,181)" d="m0 0 4 1 4 6v6l-3 3h-6l-2-3v-10z" fill="#D1F2FA"/>
<path transform="translate(204,180)" d="m0 0 3 1 1 14 2 2 4-1 1-1 1-8 4-3 1 12-4 1-3 3-4 2-6-1z" fill="#182853"/>
<path transform="translate(815,393)" d="m0 0h6l4 4v7h-11l-2-1-2-7-2-2z" fill="#46C0C6"/>
<path transform="translate(221,120)" d="m0 0h53l1 1 15 1v1h-70z" fill="#33B0B8"/>
<path transform="translate(890,590)" d="m0 0 4 2 3 4 14-1 2 6h-23z" fill="#32B8BC"/>
<path transform="translate(1029,588)" d="m0 0h1l-1 15-4 37-2 15h-1v-18l2-14 3-33z" fill="#222C63"/>
<path transform="translate(863,805)" d="m0 0h121v1l-113 1-1 2-7-2z" fill="#73D2E5"/>
<path transform="translate(346,528)" d="m0 0h2l2 3v23h-7l-1-9-3-2v-5h3l1 6 3-1v-10l-1-4z" fill="#398FA7"/>
<path transform="translate(936,186)" d="m0 0h4v16h3l2-9 1-1h5l-1 11-4 1h-10z" fill="#4DBCC8"/>
<path transform="translate(1162,536)" d="m0 0h1v27l-2 3v-2h-2l-3-10 2-12 3-3z" fill="#32B8BC"/>
<path transform="translate(249,182)" d="m0 0h3l3 5-2 8-4 3h-4l-1-3v-11z" fill="#D4F4FB"/>
<path transform="translate(858,840)" d="m0 0h9l1 6-4 3h-10v2h-4l1-5 5-5z" fill="#1D1D54"/>
<path transform="translate(920,889)" d="m0 0 16 2 6 2-4 4-6 1-2-2-12-1-3-2z" fill="#9BEFFB"/>
<path transform="translate(1316,745)" d="m0 0h1v12l-2 16-1 23h-1l-2-13v-14l4-20z" fill="#088E98"/>
<path transform="translate(855,394)" d="m0 0h9v2h3l-1 8h-11l-2-4v-5z" fill="#7FDAEB"/>
<path transform="translate(248,695)" d="m0 0h7v2l4 1-4 1-1 4 3 1-9 1-2-1h-9l5-6z" fill="#94E9F7"/>
<path transform="translate(289,485)" d="m0 0h10v1l-6 1 1 6h13l-2 2h-17l-8-5 1-3z" fill="#212D63"/>
<path transform="translate(991,399)" d="m0 0 3 1-18 6-5 1v9l3 11-2 1-7-17-2-2v-3z" fill="#D96235"/>
<path transform="translate(1333,188)" d="m0 0 5 1 2 5 1 5 1-2v-8l2-1 1 13 3-1-2 5h-6v-2l-4 1-1-10z" fill="#8EE3F1"/>
<path transform="translate(1369,805)" d="m0 0 4 1-1 6-7 6-3 2-1 3-1 17h-1v-18l1-5-1-1v-9h1l1 6 5-3 1-4z" fill="#30A2B1"/>
<path transform="translate(214,740)" d="m0 0 5 5h2v6l5-1 1-6 4-1v5l-2 4-9 1-7-1-1-9z" fill="#8AE3F2"/>
<path transform="translate(312,382)" d="m0 0 11 1v1l-7 1 7 2 4-2 2 2-7 3h-4v2h10v1h-13l-5-2-2-4 1-4z" fill="#1E245A"/>
<path transform="translate(228,529)" d="m0 0h4l-3 9-6 14-5 2h-5l1-2 4-2 4-7 4-12z" fill="#173863"/>
<path transform="translate(421,473)" d="m0 0h6l-2 1-1 4-6 2 14 1v1h-24l1-5 1-2z" fill="#73D2E4"/>
<path transform="translate(1353,638)" d="m0 0h1l-1 18-4 1h-38l-10-1v-1h49z" fill="#36A8B4"/>
<path transform="translate(975,526)" d="m0 0h41v1l-46 2-12 1-3 2-1 9h-2v-9l2-4z" fill="#4ECBC6"/>
<path transform="translate(285,528)" d="m0 0h10v3h-7l-1 20h-2l-1 3-1-1v-21z" fill="#24708A"/>
<path transform="translate(807,856)" d="m0 0 4 1v3l3 1-2 4-2 7-4 1-1 2v-2l-4 2-1-5h4z" fill="#1D1D55"/>
<path transform="translate(1006,385)" d="m0 0h6l-1 3-21 5-7 2h-7l-1-2zm-34 9h3v2h-3z" fill="#D9E6E2"/>
<path transform="translate(1264,188)" d="m0 0h6l1 7-1 8-5 2-2-7v-8z" fill="#AEEDF8"/>
<path transform="translate(202,893)" d="m0 0 3 1-7 7-1 2v9l4 5 5 2v2l7 1v1h-12l-2-2-5-9v-12l4-5z" fill="#34AEB7"/>
<path transform="translate(291,694)" d="m0 0 8 1 6 3-2 4h-15v-6z" fill="#74C9DC"/>
<path transform="translate(813,528)" d="m0 0 4 1 3 3 1 3v11h-3l-2-1-3-9-2-5h2z" fill="#07989C"/>
<path transform="translate(309,783)" d="m0 0h3l1 13 4-2v4l3 2h-5v-2h-2v4l-4-1-2-3v-7z" fill="#97E5F2"/>
<path transform="translate(787,419)" d="m0 0h15l1 1v8h-8l-2-2-1-4h-5z" fill="#3BBBC0"/>
<path transform="translate(850,792)" d="m0 0h8l3 5 1 10h-5l-3-5z" fill="#1C1B53"/>
<path transform="translate(405,528)" d="m0 0h5l-2 3-1 22h-5l1-24z" fill="#14325C"/>
<path transform="translate(1250,188)" d="m0 0 6 1 1 11-2 4h-6v-10z" fill="#9CECF8"/>
<path transform="translate(1311,302)" d="m0 0 6 1 1 1v5l-5 4-6-1-1-5z" fill="#365A96"/>
<path transform="translate(1235,877)" d="m0 0h13l-4 2 5 1 15 1 1 2h-20l-16-1v-1l5-1z" fill="#9EF1FD"/>
<path transform="translate(314,528)" d="m0 0 4 1v21l-1 4h-3z" fill="#24597A"/>
<path transform="translate(275,182)" d="m0 0 4 1 2 3v8l-6 7h-7l2-1v-2l6-3-1-7-2-5z" fill="#172651"/>
<path transform="translate(1e3 627)" d="m0 0 3 1v8l-3 3h-6l-1-1v-7l4-3z" fill="#D96235"/>
<path transform="translate(379,529)" d="m0 0h2v21l-5 4h-7l1-2 4-1 5-13v-7l-13 2 1-2z" fill="#266B94"/>
<path transform="translate(775,590)" d="m0 0h7l3 3 1 3h3v4h-5l-1-2-4-1 1 4-5-1z" fill="#2FB2B8"/>
<path transform="translate(336,458)" d="m0 0 1 2 11 3 5 2-3 1-2 4h-2l-1 2-2-4-11-6v-2z" fill="#193561"/>
<path transform="translate(779,810)" d="m0 0 38 1-1 3h-13l-22-1z" fill="#70D1E2"/>
<path transform="translate(378,384)" d="m0 0h6l5 2 3-1-1 4-5 3h-11l2-4-2-3z" fill="#101540"/>
<path transform="translate(262,743)" d="m0 0h3v5l-3 3h-13v-6l8 1 1-2v2l3-1z" fill="#7AD9E8"/>
<path transform="translate(1050,723)" d="m0 0h6l1 2-1 5h-13l-4 2v-7l2 1 7-2z" fill="#7AD7E8"/>
<path transform="translate(854,589)" d="m0 0h18v1h-11v7l-1 4h15v1h-43l1-2h24v-7l1-2z" fill="#63CFD8"/>
<path transform="translate(441,529)" d="m0 0 3 3 3 12 1 9h-6l-1-21z" fill="#2797A9"/>
<path transform="translate(672,738)" d="m0 0 5 1 2 6-6 2h-7v-6z" fill="#309EB1"/>
<path transform="translate(219,697)" d="m0 0 4 1 2-1h9v5l-2 2h-7l-5-1v-3l-4 1v-2h3z" fill="#8FE6F4"/>
<path transform="translate(330,530)" d="m0 0h4l1 6-4 16-4 1v-6l2-6z" fill="#132E59"/>
<path transform="translate(312,669)" d="m0 0 8 1v8l-1 2h-4l-1-4-3 1-1-2-2 4-1-4z" fill="#9AEDFA"/>
<path transform="translate(826,394)" d="m0 0h12l1 2v8h-11l4-1-3-7z" fill="#36BABD"/>
<path transform="translate(357,780)" d="m0 0 3 2v13l-3 6-4 4-3-1 4-3 1-4v-8l-1-4 2-3z" fill="#173A64"/>
<path transform="translate(371,384)" d="m0 0h7l-2 2 2 3-2 2 5 1v1h-10l-7-4-1 4h-5l4-1 1-6 6 1h2z" fill="#26386D"/>
<path transform="translate(1043,681)" d="m0 0 26 1 1 4h-27z" fill="#73D2E5"/>
<path transform="translate(1336,813)" d="m0 0h1l3 19-1 4v-3l-5-2-2-4 3-6-3-1v-3h4z" fill="#1B7999"/>
<path transform="translate(329,782)" d="m0 0h5v15l-5 1-1-2z" fill="#C4F1FA"/>
<path transform="translate(358,668)" d="m0 0h3l-3 9-4 2h-4v2l-5-2v-5l3-1v-2h2l1 5 3 1 1-5z" fill="#81DDEB"/>
<path transform="translate(350,534)" d="m0 0 1 2 4 1 4 4-1 4-1-2-3 5h-5v-9z" fill="#9EF1FD"/>
<path transform="translate(1355,187)" d="m0 0h5l-3 5 1-1 2 2 1 7-2 3-4-2-2-2v-10z" fill="#385898"/>
<path transform="translate(206,780)" d="m0 0 2 3-1 11 3 5 9 1v1h-11l-6-6v-7l3-7z" fill="#48C4C2"/>
<path transform="translate(810,590)" d="m0 0h9v11h-7l-1-6z" fill="#3ABBC0"/>
<path transform="translate(885,419)" d="m0 0h8l1 2-1 5h2v2h-13l1-6 4 1v2h2l-4-4z" fill="#3ABDBE"/>
<path transform="translate(1315,196)" d="m0 0h1l2 9 2 1-7 1-8-1h-7l4-4h3v-2h2l2 3 4 1v-6z" fill="#21235E"/>
<path transform="translate(1134,189)" d="m0 0h5v15l-5-1-1-2v-9z" fill="#A4E3F0"/>
<path transform="translate(202,891)" d="m0 0h10l1 4-4-1h-7l-5 3-2 3v12l5 9-4-2-4-8v-9l3-6 5-4z" fill="#35699B"/>
<path transform="translate(1057,473)" d="m0 0h8l-1 4-3 1h-19v-2l5-2z" fill="#1A143C"/>
<path transform="translate(712,799)" d="m0 0h2l2 4h17l1-2v2l3 1-1 3h-17l-5-2-2-2z" fill="#35A9B5"/>
<path transform="translate(215,647)" d="m0 0h10v9l-5-1-1-6h-3l-1 6h-5l1-6z" fill="#66CCDA"/>
<path transform="translate(1094,515)" d="m0 0 9 4 7 1 18 1v1h-35z" fill="#9AEEFB"/>
<path transform="translate(399,717)" d="m0 0 2 2v8l-10 2-5-1v-5l2-3h4l1 5h6z" fill="#4286AE"/>
<path transform="translate(1326,702)" d="m0 0h2l1 26v37h-1l-2-57-1-5z" fill="#2389A3"/>
<path transform="translate(1345,186)" d="m0 0h5l3 3h-3l-1 9-2 3h-2l-2-13z" fill="#2B3B77"/>
<path transform="translate(947,573)" d="m0 0h26v1l13 1v1l-40 1z" fill="#1596A6"/>
<path transform="translate(790,394)" d="m0 0h5v8l1 2h-19l-3-2 8-1 1-2v3l6 1v-7z" fill="#73D2E5"/>
<path transform="translate(251,179)" d="m0 0 4 5 2 7-1 6-4 5h-5l1-4 3-3h2l1-8-2-5-2-1z" fill="#21446B"/>
<path transform="translate(252,529)" d="m0 0 3 1 2 6h-4l-1 11 3 1-3 5h-2v-14l1-9z" fill="#176583"/>
<path transform="translate(913,419)" d="m0 0h8l1 7-1 1h-10v-5h2z" fill="#36BBBD"/>
<path transform="translate(877,189)" d="m0 0 6 1 3 8 2 1v5h-5l-4-9z" fill="#3AADBA"/>
<path transform="translate(433,445)" d="m0 0h7l2 2v5l-2 2-8-1z" fill="#141E49"/>
<path transform="translate(778,645)" d="m0 0 5 1-3 8-1 5-2-2-2 4-1-2v-9z" fill="#D96235"/>
<path transform="translate(376,444)" d="m0 0h9l-1 9-6-1-4-6z" fill="#0F0F3A"/>
<path transform="translate(807,780)" d="m0 0 6 1 9 4 6-1 8 3 10 2v1l-15-1-10-2-13-5z" fill="#4DB9C7"/>
<path transform="translate(338,783)" d="m0 0h4v15l-5-1v-12z" fill="#89E2EF"/>
<path transform="translate(280,777)" d="m0 0h29l1 2h-16l-1 3h-3l-4-2-6-2z" fill="#35AFB7"/>
<path transform="translate(1238,187)" d="m0 0h7l-2 2-4-1-1 11-4 4-1-1v-14z" fill="#254576"/>
<path transform="translate(1325,189)" d="m0 0h4v12l-1 2h2v2l-4-1-3-4 1-10z" fill="#83DCEC"/>
<path transform="translate(220,782)" d="m0 0 4 1 1 5-2 8h-5l1-11z" fill="#237A98"/>
<path transform="translate(252,776)" d="m0 0 20 1 5 1v1l-13 1-6 1v-3l-10 1-10-1v-1z" fill="#34AEB6"/>
<path transform="translate(248,718)" d="m0 0 5 1-1 5-1 2-10 1 2-6z" fill="#68C6D8"/>
<path transform="translate(383,482)" d="m0 0h1v12l-8 1v-3h2l-1-6 2-2h4z" fill="#0F0F3A"/>
<path transform="translate(1301,187)" d="m0 0h1l-1 18-4-1v-14z" fill="#A7E4EF"/>
<path transform="translate(795,187)" d="m0 0 6 1-2 14-4-1 1-11-3 6v6h-3l1-8 3-6z" fill="#52C4CF"/>
<path transform="translate(308,781)" d="m0 0h2l-2 10v7l2 4h-3l-3-3v-12l1-5z" fill="#2D6692"/>
<path transform="translate(194,720)" d="m0 0 9 1h6l1 5-3 1-12-1-1-1z" fill="#46ABBF"/>
<path transform="translate(341,782)" d="m0 0h5l1 1v10l-2 4-3-1z" fill="#324C8B"/>
<path transform="translate(264,779)" d="m0 0h10l2 2-1 16h-1l-1-12-7-2v5h-1l-1-6-3-2z" fill="#72D1E4"/>
<path transform="translate(399,648)" d="m0 0h5l-1 4-5 3-2 1h-6v-5l4-1 1 2z" fill="#3675A1"/>
<path transform="translate(465,528)" d="m0 0h11v4l-12 1-5 4v-5l3-3z" fill="#1E617F"/>
<path transform="translate(875,395)" d="m0 0h6l-2 5h2l1 4-3 1h-12v-1h7v-8z" fill="#77D5E7"/>
<path transform="translate(882,394)" d="m0 0 5 1 1 2v7h-6l-1-4h-2l2-5z" fill="#35BABD"/>
<path transform="translate(245,801)" d="m0 0h4v2l20-1 5 1v1h-39l-8-1v-1z" fill="#364F93"/>
<path transform="translate(863,418)" d="m0 0h30v1h-8v2l4 2v2h-2v-2l-4-1-1 6h-6l4-4 1-5h-18z" fill="#79D9E7"/>
<path transform="translate(383,354)" d="m0 0 4 2v14l-3 9-1-4z" fill="#365797"/>
<path transform="translate(1589)" d="m0 0h11v7h-7l-4-4z" fill="#73D2E5"/>
<path transform="translate(294,779)" d="m0 0h18l-1 2-6 1v5l-1-4h-8l-1 4z" fill="#70D1E2"/>
<path transform="translate(831,590)" d="m0 0h7v3l-1 7-4 1-2-1z" fill="#3EBCC2"/>
<path transform="translate(708,809)" d="m0 0h16l1 4h-19l-1-3z" fill="#4DCAC5"/>
<path transform="translate(281,784)" d="m0 0 2 1-1 16h-5l2-15z" fill="#96EBF8"/>
<path transform="translate(779,597)" d="m0 0 5 1v2h24l10 1v1h-29l-9-1z" fill="#6CD0DF"/>
<path transform="translate(1029,588)" d="m0 0h1l-1 15-2 13-2 1 1-17 1-10z" fill="#283C6D"/>
<path transform="translate(863,805)" d="m0 0h52v1l-44 1-1 2-7-2z" fill="#54CCCB"/>
<path transform="translate(654,805)" d="m0 0h38l-3 3-1 2h-10l2-2 3-1-29-1z" fill="#66D3D8"/>
<path transform="translate(232,781)" d="m0 0h3v20h-3l-1-12z" fill="#1C5E80"/>
<path transform="translate(1092,781)" d="m0 0 4 4 4 9v2l-4 1v-5l-1-1h-6v-5h2z" fill="#1D1B53"/>
<path transform="translate(248,783)" d="m0 0h2v16l-4 2-1-5 2-12z" fill="#9CF0FC"/>
<path transform="translate(252,778)" d="m0 0h6v3h3l-1 2h-8l-1 15h-1v-15l-2 1-1 5h-1l1-9 4-1z" fill="#6ACEDF"/>
<path transform="translate(327,718)" d="m0 0 7 1-1 8-5 2 2-8h-2l-3 8h-1v-9z" fill="#43A0B8"/>
<path transform="translate(270,361)" d="m0 0 2 2v6l-4 7-3-3v-11l3 2z" fill="#395E9B"/>
<path transform="translate(288,532)" d="m0 0 7 1 1 6-5 3h-3z" fill="#DDF6FD"/>
<path transform="translate(1155,528)" d="m0 0h3v2l4 1 2-1v29h-1l-1-20-3 2v-8z" fill="#46C0C8"/>
<path transform="translate(1280,187)" d="m0 0 3 1-1 10 1 6-4 1-1-5v-10z" fill="#B7EDF8"/>
<path transform="translate(261,781)" d="m0 0 4 1v19l-4-1z" fill="#224778"/>
<path transform="translate(212,781)" d="m0 0 3 1-2 12-3 3-1-1v-10z" fill="#3280A2"/>
<path transform="translate(483,720)" d="m0 0h6v3l-5 4-8-1 1-4z" fill="#4791B5"/>
<path transform="translate(267,696)" d="m0 0h5v2l5-1v5l-1 1h-6v-2l-6 1z" fill="#59A2BF"/>
<path transform="translate(953,543)" d="m0 0 3 1h-2v12l-1 16h-2l-1-4 1-22z" fill="#4ECBC6"/>
<path transform="translate(1064,185)" d="m0 0 4 1-4 3-2 9 3 3h3 3l2-2-1 4-1 1h-7l-4-3v-10z" fill="#39ABBA"/>
<path transform="translate(1290,188)" d="m0 0 3 1-2 12-1 3-4-1 2-12z" fill="#AAE7F3"/>
<path transform="translate(234,483)" d="m0 0 5 1v5l-6 2-5-1-1-3 4-3z" fill="#1D1B53"/>
<path transform="translate(695,355)" d="m0 0 1 2h2v6l-1 4v18l-2 2z" fill="#36A8B4"/>
<path transform="translate(268,718)" d="m0 0h4v9h-10l2-4 1 1z" fill="#4275A7"/>
<path transform="translate(852,589)" d="m0 0 7 2-1 4v5l-5 1-3-2h2l2-6-3 1z" fill="#33B8BC"/>
<path transform="translate(1010,475)" d="m0 0h16l1 1 7 1v1l-13 1-12-2z" fill="#1E2147"/>
<path transform="translate(266,179)" d="m0 0h8l3 3-5 2v-2h-7l-2 5-1 3h-3l1-5z" fill="#1F3862"/>
<path transform="translate(927,590)" d="m0 0h5v11h-6v-7l3-1v-2z" fill="#2DA3B0"/>
<path transform="translate(1028,536)" d="m0 0h1l1 6v20h-1v-18l-15-1 1-2 12-1z" fill="#3094AC"/>
<path transform="translate(795,394)" d="m0 0h7l-2 9-4 1-2-2v-7z" fill="#30B7BA"/>
<path transform="translate(1361,377)" d="m0 0 4 1 1 5 1 6-4-1-3-1v-9z" fill="#3BBDC0"/>
<path transform="translate(1318,189)" d="m0 0h4l-1 3v9h2l-2 4h-3l-1-2v-13z" fill="#A4E4F0"/>
<path transform="translate(247,330)" d="m0 0h2v21l-2-2v-4h-2v-10z" fill="#385898"/>
<path transform="translate(868,188)" d="m0 0 1 3-3 10h3l2-6 2 1v6l-2 2-5-1-1-1v-9z" fill="#4AC0C9"/>
<path transform="translate(208,697)" d="m0 0h11v2h-3v2l3-1 2-2-1 5h-8l-1-2-3 1z" fill="#52B0C7"/>
<path transform="translate(378,435)" d="m0 0h7v2l-5 5v1l-8 1 3-5h2v-2l-3-1z" fill="#6AC8DC"/>
<path transform="translate(1321,334)" d="m0 0 7 6 6 10 1 2v6l-3-3-5-12-6-7z" fill="#13A9AD"/>
<path transform="translate(352,320)" d="m0 0h14l-1 4h-9l-4 4z" fill="#0F0F3A"/>
<path transform="translate(838,824)" d="m0 0 3 3 1 7h-7l-1-4z" fill="#36A8B4"/>
<path transform="translate(353,719)" d="m0 0h4v11l-5 2-3-1 4-2z" fill="#356D9D"/>
<path transform="translate(351,645)" d="m0 0h3l-1 8-4 4-5 2 5-9z" fill="#346D9D"/>
<path transform="translate(268,529)" d="m0 0 2 2-1 22h-4l1-9 1-3z" fill="#132653"/>
<path transform="translate(1162,536)" d="m0 0h1v20h-2l-2-8 1-8z" fill="#36A8B4"/>
<path transform="translate(1324,186)" d="m0 0 1 2 3 1-3 1-1 10-4 2v-10l2-3-2-1z" fill="#2B3B76"/>
<path transform="translate(411,720)" d="m0 0h1v6l-1 2 5-2 2-3h2v5l-5 2-7-1 1-7z" fill="#4388AF"/>
<path transform="translate(258,537)" d="m0 0h5l3 4 1 3-1 5h-1v-5l-7 1z" fill="#5BA8BF"/>
<path transform="translate(344,532)" d="m0 0 3 1v10l-4 1-1-6-2-1z" fill="#7CDBE8"/>
<path transform="translate(415,529)" d="m0 0 5 2v7l-4 6-5 2 2-5 4-5z" fill="#132E56"/>
<path transform="translate(1010,498)" d="m0 0 9 5 3 3 1 8-4-5-5-5-6-4z" fill="#1A274F"/>
<path transform="translate(821,190)" d="m0 0 4 2-1 11h-6l2-12z" fill="#55C0CF"/>
<path transform="translate(1350,189)" d="m0 0 4 1v14h-3l-2-5v-7z" fill="#A6ECF8"/>
<path transform="translate(367,528)" d="m0 0h12v2l-12 2-3 6h-3l2-7z" fill="#1F537B"/>
<path transform="translate(1343,188)" d="m0 0h1l1 13 3-1-2 5h-6l2-8v-8z" fill="#67ACCC"/>
<path transform="translate(699,192)" d="m0 0 4 1v9h-9z" fill="#6ED1DE"/>
<path transform="translate(1311,189)" d="m0 0h1v13l-4 1-1-1 1-9z" fill="#CAF0F9"/>
<path transform="translate(1304,537)" d="m0 0h1l2 6 4 4-1 3h-6l-2 1 1-13z" fill="#D96235"/>
<path transform="translate(1120,190)" d="m0 0h3l1 4v9l-5 1z" fill="#2D97AC"/>
<path transform="translate(275,781)" d="m0 0h3v17h-3z" fill="#1D3F6E"/>
<path transform="translate(216,783)" d="m0 0h3v9l-2 4-5 1v-3h2z" fill="#99EDFA"/>
<path transform="translate(428,720)" d="m0 0h9l2 1v6l-4 1v-7l-3 1-5 5z" fill="#4186AC"/>
<path transform="translate(1e3 192)" d="m0 0 2 1v11l-4-1-2-2v-6l1-2z" fill="#52BECC"/>
<path transform="translate(1359,868)" d="m0 0 3 1 2 6 3 1-12-1-1-3z" fill="#2A2F5B"/>
<path transform="translate(195,745)" d="m0 0 13 1-4 5-7-1-2-2z" fill="#31A8B4"/>
<path transform="translate(503,694)" d="m0 0 5 2v5l-3 3h-5z" fill="#42A5BB"/>
<path transform="translate(424,668)" d="m0 0h2v7l-3 6h-4l3-10h2z" fill="#37A2B5"/>
<path transform="translate(235,537)" d="m0 0 3 2 1 14h-4z" fill="#18335F"/>
<path transform="translate(242,322)" d="m0 0h6l-2 8h-5l-1-6z" fill="#111942"/>
<path transform="translate(1239,188)" d="m0 0h4l-2 11-2 3h-2l1-12z" fill="#A6E7F4"/>
<path transform="translate(1264,188)" d="m0 0h6l1 7-1 8-3 1v-11l1-4z" fill="#6ECBDF"/>
<path transform="translate(313,782)" d="m0 0 2 1v2h2v9l-4 2-1-13z" fill="#3690AB"/>
<path transform="translate(464,719)" d="m0 0h4v7l-1 2h-5l-1-3z" fill="#409BB6"/>
<path transform="translate(442,646)" d="m0 0 7 1 1 5-2 3-3-1v-5l-2-1-1 7-2-1 1-7z" fill="#4CB6C6"/>
<path transform="translate(911,397)" d="m0 0 3 1v2l3-1v5h-14v-1h5l1-3h2z" fill="#73D2E5"/>
<path transform="translate(1100,801)" d="m0 0 3 3v2h-37v-1l30-1 4-1z" fill="#376A9D"/>
<path transform="translate(289,780)" d="m0 0 4 1 2 1 1 11h-1l-1 5h-1l-2-13z" fill="#336B9D"/>
<path transform="translate(432,694)" d="m0 0 4 1v6l-2 3-2-1 1-1v-6h-2v2h-2l-1 5-5 1v-2h2l1-4z" fill="#4FA5BF"/>
<path transform="translate(1300,554)" d="m0 0 1 4-1 4-5 1-5-2 3-3z" fill="#9EF1FD"/>
<path transform="translate(817,544)" d="m0 0 4 2-2 6-6 5-4-1 6-4v-6z" fill="#1B899F"/>
<path transform="translate(853,395)" d="m0 0h8l-2 7h-4l-2-2z" fill="#38BAC0"/>
<path transform="translate(1350,389)" d="m0 0h5l1 4-1 5-5-1-1-1v-6z" fill="#38BABF"/>
<path transform="translate(1102,190)" d="m0 0h3l1 13-5 1z" fill="#35A4B4"/>
<path transform="translate(795,189)" d="m0 0 2 1-1 11 2 2h-5l-1-7z" fill="#CAF2FB"/>
<path transform="translate(332,911)" d="m0 0 2 4 3-1v9h-5z" fill="#121442"/>
<path transform="translate(342,719)" d="m0 0 3 1v12l-4-1v-11z" fill="#4592B5"/>
<path transform="translate(230,646)" d="m0 0h4v11l-5-1z" fill="#5AB4CC"/>
<path transform="translate(256,646)" d="m0 0h3v10l3 1-1 1h-5l-1-2z" fill="#3C9DB7"/>
<path transform="translate(1245,191)" d="m0 0h2l1 6h1v7h5v1h-6l-1-5-4 2-1-2z" fill="#222E66"/>
<path transform="translate(196,914)" d="m0 0 10 5v2l7 1v1h-12l-2-2-3-5z" fill="#3DADBA"/>
<path transform="translate(860,887)" d="m0 0 7 3 22 2v1h-11l-17-1z" fill="#191F53"/>
<path transform="translate(338,781)" d="m0 0 2 1-2 3-1 12-3-1v-11z" fill="#2592A6"/>
<path transform="translate(312,779)" d="m0 0h7l6 2-2 2-7-1 1 3h-2l-1 3v-5h-4z" fill="#75D4E6"/>
<path transform="translate(214,721)" d="m0 0 3 1 1-1h5l-2 6h-5v-2h-2v2h-2z" fill="#4D99BB"/>
<path transform="translate(415,695)" d="m0 0 5 1-1 9-5-1z" fill="#4798B8"/>
<path transform="translate(242,671)" d="m0 0h1l-1 9-4 1-3-1 2-4z" fill="#3A7FA3"/>
<path transform="translate(318,645)" d="m0 0h4l-1 6-3 6h-2v-8z" fill="#316499"/>
<path transform="translate(297,548)" d="m0 0 2 4-5 3h-9v-4h9z" fill="#1D3F6B"/>
<path transform="translate(439,531)" d="m0 0 3 1v12h-1v-6l-6 2 2-7z" fill="#6BCCDE"/>
<path transform="translate(1361,399)" d="m0 0h5v8l-1 2-4-1z" fill="#169AA7"/>
<path transform="translate(308,348)" d="m0 0h7l8 2v1l-21 2 5-4z" fill="#1F2159"/>
<path transform="translate(735,193)" d="m0 0 5 1-1 3-2-1-1 5 1 2-7 1 1-4 3-6z" fill="#42BEC5"/>
<path transform="translate(243,186)" d="m0 0h1l1 12 3 1-1 2-4-2-3-3v-5z" fill="#1B2F5C"/>
<path transform="translate(1359,807)" d="m0 0h1v8l3-1 1 4-3 5-1 17h-1v-18l1-5-1-1z" fill="#596280"/>
<path transform="translate(324,782)" d="m0 0h4v17l-2 3-1-14z" fill="#325C97"/>
<path transform="translate(1099,703)" d="m0 0h13l-3 3-9 2z" fill="#73D2E5"/>
<path transform="translate(450,669)" d="m0 0 4 2 3 3v6l-5 1-1-9z" fill="#42A9BD"/>
<path transform="translate(214,670)" d="m0 0h3v11h-6z" fill="#409EB7"/>
<path transform="translate(431,540)" d="m0 0h1l1 8-2 5h-6z" fill="#1E4C75"/>
<path transform="translate(893,419)" d="m0 0h3l1 8h20v1h-22v-2h-2z" fill="#73D2E5"/>
<path transform="translate(687,191)" d="m0 0 6 1v5l-3 4-3-2z" fill="#65CCDC"/>
<path transform="translate(218,915)" d="m0 0h4l-2 4-5 3h-9l-3-2 10-1 4-2z" fill="#346092"/>
<path transform="translate(1358,855)" d="m0 0 2 3-1 6-13-3v-1l8-1z" fill="#1F275B"/>
<path transform="translate(289,783)" d="m0 0h2l2 6v10l-4 1 2-1v-6l-3-6z" fill="#94EAF7"/>
<path transform="translate(331,671)" d="m0 0h3l1 11-5-1v-8z" fill="#26447B"/>
<path transform="translate(225,534)" d="m0 0 1 3-3 12-5 5h-5l1-2 4-2 4-7z" fill="#3174A1"/>
<path transform="translate(427,472)" d="m0 0h2l-1 6-3 3h-11l4-2 6-1 1-4h2z" fill="#9CEFFB"/>
<path transform="translate(1305,190)" d="m0 0 2 1-1 1-1 10h-3l-1 2v-9l2-4z" fill="#3D649F"/>
<path transform="translate(1289,187)" d="m0 0 4 1-3 1-2 8h-1v-5h-2v3l-4 3 1-10 1 2z" fill="#38639C"/>
<path transform="translate(1243,189)" d="m0 0h6v8l-2 1v-7h-2l-2 9h-1v-9z" fill="#111340"/>
<path transform="translate(646,770)" d="m0 0h4v9l-1-2-4-1-4-5z" fill="#95EAF7"/>
<path transform="translate(839,420)" d="m0 0h10l1 7-7-1v-2h2l-1-2-5-1z" fill="#30B0B7"/>
<path transform="translate(228,359)" d="m0 0 2 3-2 7-1 2h-4v-7h3z" fill="#38639C"/>
<path transform="translate(1013,193)" d="m0 0 5 1 2 4-1 5-5 1v-3l3 1-1-7h-2l-1 4z" fill="#3CA9BA"/>
<path transform="translate(985,190)" d="m0 0 3 1 2 10-2 3h-3z" fill="#2E9BAE"/>
<path transform="translate(1085,190)" d="m0 0 1 4-1 8 4 2-8-1 1-10z" fill="#50BFCA"/>
<path transform="translate(831,191)" d="m0 0h3l1 5v8l-3-1-1-2z" fill="#5CC8D5"/>
<path transform="translate(849,189)" d="m0 0h3l-1 14-4 1 1-9v-5z" fill="#2BA0B0"/>
<path transform="translate(1152,189)" d="m0 0h2v8l3 5 1 2-5-1-3-8 1-5z" fill="#4BC0CA"/>
<path transform="translate(238,743)" d="m0 0h3l1 10h-6z" fill="#3CAEBB"/>
<path transform="translate(446,719)" d="m0 0h4v7l-1 3h-4z" fill="#498FB5"/>
<path transform="translate(333,696)" d="m0 0h2l2 2h2l-1 4-4 1-3-2v2h-2l2-6z" fill="#408BAF"/>
<path transform="translate(275,668)" d="m0 0h2l1 5h2l-1 6-3 3h-2l1-11z" fill="#316B95"/>
<path transform="translate(407,667)" d="m0 0h2l-1 11-1 2h-6l4-6z" fill="#3581A6"/>
<path transform="translate(300,671)" d="m0 0 4 1-2 9-5 1 1-6z" fill="#355893"/>
<path transform="translate(337,644)" d="m0 0 3 3v6l-2 2-3-3-1-7z" fill="#2A6F91"/>
<path transform="translate(875,419)" d="m0 0h6l-1 7-5 2-2-2h3z" fill="#36BBBD"/>
<path transform="translate(1169,189)" d="m0 0 2 1 3 12-7 2v-2l2-1-1-11z" fill="#2A97AB"/>
<path transform="translate(655,757)" d="m0 0 4 4v3l5 1v1h-10z" fill="#8AE2F1"/>
<path transform="translate(365,647)" d="m0 0h4l-1 10-4-1v-7z" fill="#2592A7"/>
<path transform="translate(1361,387)" d="m0 0 5 1 2-1 1 2 6-2v3l-2 1h-9l-1 3h-1z" fill="#57CCCE"/>
<path transform="translate(974,192)" d="m0 0 3 1v7l-1 3-6 1 3-6z" fill="#40B7C2"/>
<path transform="translate(813,188)" d="m0 0h2l-1 10-2 5-2-1 1-12h2z" fill="#4AB9C5"/>
<path transform="translate(338,890)" d="m0 0h4l-2 14h-1v-8l-3-1 1-4z" fill="#22416A"/>
<path transform="translate(245,790)" d="m0 0h1v11l-1 1h-10v-1h6l1-5z" fill="#5DCAD4"/>
<path transform="translate(1257,526)" d="m0 0h1l-1 26h-1l-1-23z" fill="#38ACB6"/>
<path transform="translate(351,471)" d="m0 0h2l1 4-2 5-3-3-11-2v-1h11z" fill="#1F3D6B"/>
<path transform="translate(897,418)" d="m0 0h24v1h-8v3h-2l-1 4-1-7h-12z" fill="#73D2E5"/>
<path transform="translate(1355,187)" d="m0 0h5l-3 5h-2l2 7 1 2-4-1-1-1v-10z" fill="#2C3F7B"/>
<path transform="translate(276,190)" d="m0 0 2 1 2 5-5 5h-7l2-1v-2l6-3z" fill="#1D2A5B"/>
<path transform="translate(212,892)" d="m0 0 6 1 1 5-1 4-6-8z" fill="#1E3667"/>
<path transform="translate(1383,875)" d="m0 0h11l-1 3-25-1v-1z" fill="#36A8B4"/>
<path transform="translate(236,786)" d="m0 0 4 2-1 10-3-1z" fill="#DEF7FE"/>
<path transform="translate(318,670)" d="m0 0h2v8l-1 2h-4l1-7z" fill="#26447B"/>
<path transform="translate(270,668)" d="m0 0 2 1-4 8-2 2h-4l2-5 5-4z" fill="#3FA1B7"/>
<path transform="translate(497,539)" d="m0 0 2 1 3 12-3 2h-5l3-2h2l-2-5z" fill="#5FC9D5"/>
<path transform="translate(458,533)" d="m0 0 2 2 2-1-2 10-3 4-1-2v-8z" fill="#2987A4"/>
<path transform="translate(903,394)" d="m0 0h12l-1 3-8 1-3 4z" fill="#35ACB6"/>
<path transform="translate(946,192)" d="m0 0h5l-1 11h-3z" fill="#5FC6D6"/>
<path transform="translate(219,184)" d="m0 0h1l1 12-4-1-1-8z" fill="#111642"/>
<path transform="translate(251,782)" d="m0 0 2 1v18l-3-1z" fill="#2F3F80"/>
<path transform="translate(855,768)" d="m0 0 5 1-1 5-5 1-1-4z" fill="#32B8BC"/>
<path transform="translate(214,740)" d="m0 0 3 3v8l-4-1-1-7z" fill="#43AEBE"/>
<path transform="translate(775,590)" d="m0 0h7v5l-3-1-2 2-2 4z" fill="#38BCBE"/>
<path transform="translate(338,539)" d="m0 0 2 4 3 2v5h-2v-2l-6-2 2-4z" fill="#99EDFA"/>
<path transform="translate(681,189)" d="m0 0 3 1-2 6-4 1-1-5z" fill="#56C4D0"/>
<path transform="translate(230,719)" d="m0 0h1v6h2l-1-6 3 1 2 5 1 2h-9z" fill="#4495B5"/>
<path transform="translate(317,695)" d="m0 0 2 1-1 6-1 1h-5l-1-3z" fill="#3B88AB"/>
<path transform="translate(289,669)" d="m0 0h3v7l-2 4-4 1z" fill="#2686A3"/>
<path transform="translate(428,646)" d="m0 0h2v13l-3-1v-11z" fill="#359AB0"/>
<path transform="translate(240,646)" d="m0 0h5v9l-3 2h-4l1-2 2 1 1-8z" fill="#3282A5"/>
<path transform="translate(710,193)" d="m0 0 3 1-2 6-3 3-3-1 3-4v-4z" fill="#58C7D3"/>
<path transform="translate(1009,193)" d="m0 0 2 3 5-1 1 7-5-1-3-4z" fill="#91E0EC"/>
<path transform="translate(812,880)" d="m0 0 9 3 3 2-6 1-6-2-1-3z" fill="#262D5F"/>
<path transform="translate(1360,807)" d="m0 0h7l-1 4-6 3z" fill="#73D2E5"/>
<path transform="translate(651,771)" d="m0 0h2l2 8v4h-4z" fill="#0A9BA2"/>
<path transform="translate(228,743)" d="m0 0h3v5l-2 4h-4l2-8z" fill="#43B5C2"/>
<path transform="translate(197,745)" d="m0 0h12l4 1-1 3-5 2-2-2 2-2-10-1z" fill="#88E2F0"/>
<path transform="translate(339,695)" d="m0 0 4 1 1 6-5 1-2-1 2-4-3 1-1-2h4z" fill="#96EBF9"/>
<path transform="translate(203,672)" d="m0 0h4l-1 7-5 1 1-7z" fill="#48BCC7"/>
<path transform="translate(195,669)" d="m0 0 3 1v10l-4-1z" fill="#68D0DC"/>
<path transform="translate(984,638)" d="m0 0h6v2l4 1v1h-12v-3z" fill="#D96235"/>
<path transform="translate(816,591)" d="m0 0h2v10h-6l2-5z" fill="#27AAB2"/>
<path transform="translate(403,529)" d="m0 0h1l1 20 2 4h-5z" fill="#2D97AA"/>
<path transform="translate(346,544)" d="m0 0h2l1 9h-5v-8z" fill="#112652"/>
<path transform="translate(379,529)" d="m0 0h2v16h-1l-1-12v-2l-13 2 1-2z" fill="#2BA4B1"/>
<path transform="translate(1304,519)" d="m0 0h8v11l-3-1-2-7-3-1z" fill="#D39771"/>
<path transform="translate(409,491)" d="m0 0h11l6 1v1l-17 1-3-1z" fill="#77D4E3"/>
<path transform="translate(836,419)" d="m0 0h11l-3 2 1 3-6 1z" fill="#5ECED3"/>
<path transform="translate(834,394)" d="m0 0h4l1 2v8l-3-1-1-1h-1z" fill="#1DABB1"/>
<path transform="translate(805,395)" d="m0 0 4 1v8l-5-1z" fill="#39BCBE"/>
<path transform="translate(1084,390)" d="m0 0 5 3 3 6v2l-4-1-4-8z" fill="#D96235"/>
<path transform="translate(352,388)" d="m0 0h7l1 4-2 1h-6z" fill="#131946"/>
<path transform="translate(724,193)" d="m0 0 5 1 1 4-4 3h-2z" fill="#5CCAD6"/>
<path transform="translate(860,788)" d="m0 0 13 2-2 2h-10l-1 2-2-5z" fill="#2AB3B8"/>
<path transform="translate(399,717)" d="m0 0 2 2v8l-10 1 1-3h7z" fill="#5A94B5"/>
<path transform="translate(225,671)" d="m0 0h4l-1 7-1 2h-3z" fill="#3AA6B7"/>
<path transform="translate(487,648)" d="m0 0h5l-1 5-2 3h-2l-1-7z" fill="#3391AC"/>
<path transform="translate(470,647)" d="m0 0h3v2h-2v7l-4-1v-6z" fill="#68CDDC"/>
<path transform="translate(378,645)" d="m0 0h1v9l-5 3-2-1 2-2 2-6z" fill="#325D93"/>
<path transform="translate(1305,200)" d="m0 0h2l3 6h-12l4-4h3z" fill="#1D1C54"/>
<path transform="translate(782,1032)" d="m0 0h8l-1 4h-8z" fill="#9EF1FD"/>
<path transform="translate(993,722)" d="m0 0h16l4 2v5h-3v-5l-17-1z" fill="#9EF1FD"/>
<path transform="translate(328,720)" d="m0 0 3 1-2 9h-4l2-9z" fill="#CBF2FB"/>
<path transform="translate(466,695)" d="m0 0 2 1 1 9-6-1z" fill="#4B9CBC"/>
<path transform="translate(447,694)" d="m0 0h2v5l-2 4-3-1v-7z" fill="#53C1CE"/>
<path transform="translate(497,649)" d="m0 0h5v6l-6 1z" fill="#57C0CF"/>
<path transform="translate(452,443)" d="m0 0h6v5l-3 2-3-2z" fill="#10113D"/>
<path transform="translate(878,400)" d="m0 0h3l1 4-3 1h-12v-1h7v-2z" fill="#69CEDE"/>
<path transform="translate(790,394)" d="m0 0h5l-3 8h-3v-6z" fill="#8DE5F3"/>
<path transform="translate(986,390)" d="m0 0 4 1-6 2-1 2h-7l-1-2zm-14 4h3v2h-3z" fill="#D5D9CA"/>
<path transform="translate(223,178)" d="m0 0 3 1-2 2-2 3-1 9h-1l-1-8-3 2 1-4z" fill="#2B5C84"/>
<path transform="translate(1357,795)" d="m0 0h1l1 5 1 16 1 2-2 4-1-4z" fill="#223E6C"/>
<path transform="translate(658,767)" d="m0 0h8l2 1v3l-9-1z" fill="#0D9EA4"/>
<path transform="translate(244,697)" d="m0 0 3 1-3 5-7 1 5-6z" fill="#2C9CAC"/>
<path transform="translate(399,696)" d="m0 0h2l-1 5-1 2h-6l3-5z" fill="#3878A1"/>
<path transform="translate(394,671)" d="m0 0h2l-1 7-6 2 2-5z" fill="#2E7BA0"/>
<path transform="translate(1316,519)" d="m0 0h1v16l-4-4 1-6z" fill="#D3936D"/>
<path transform="translate(1348,198)" d="m0 0 2 1 2 5 5 1v1h-11l1-4z" fill="#21225D"/>
<path transform="translate(1162,191)" d="m0 0 2 1-1 9-3 1-1-6z" fill="#73D2E5"/>
<path transform="translate(717,192)" d="m0 0 5 1-1 5-4 1-1-6z" fill="#62CCD7"/>
<path transform="translate(892,885)" d="m0 0 9 3v5l-9-5z" fill="#212B61"/>
<path transform="translate(721,795)" d="m0 0 3 2v2l5 1h3v3l-8-1-3-5z" fill="#1498A6"/>
<path transform="translate(241,788)" d="m0 0h3v7l-3 6h-3l2-6z" fill="#32A8B3"/>
<path transform="translate(262,743)" d="m0 0h3v5l-2 2h-5l2-4z" fill="#218CA3"/>
<path transform="translate(478,647)" d="m0 0h2v2l2 1-2 5-3 2v-9z" fill="#459FBA"/>
<path transform="translate(274,646)" d="m0 0 3 1 1 6-3 3-2-1z" fill="#327FA4"/>
<path transform="translate(213,648)" d="m0 0 4 1-2 6h-5l1-6z" fill="#3CA5B8"/>
<path transform="translate(195,646)" d="m0 0h2l2 5-1 4h-4v-8z" fill="#5ECAD7"/>
<path transform="translate(386,432)" d="m0 0 1 4-2 7h-5l-1-2h2l2-4h2z" fill="#94EBF7"/>
<path transform="translate(957,191)" d="m0 0 3 1-1 10-4 1z" fill="#5FC8D6"/>
<path transform="translate(669,741)" d="m0 0h3l2 4-1 2h-5l-1-4z" fill="#185C7F"/>
<path transform="translate(311,718)" d="m0 0 3 1v8l-4 2z" fill="#327198"/>
<path transform="translate(368,670)" d="m0 0h1l1 9-1 2-4-1 1-4z" fill="#2F6E97"/>
<path transform="translate(1028,567)" d="m0 0h1l-1 9-14-2v-1l13-1z" fill="#207D9D"/>
<path transform="translate(410,528)" d="m0 0h6l2 8-2 2-1-7h-7z" fill="#46B0C2"/>
<path transform="translate(1312,519)" d="m0 0h4l-1 6-1 2h-2l-1-6z" fill="#DDF3F8"/>
<path transform="translate(398,478)" d="m0 0h1l2 6 1 5-3 1-1 2z" fill="#365D99"/>
<path transform="translate(790,422)" d="m0 0h2l3 6h-8l1-4z" fill="#4FCBC7"/>
<path transform="translate(871,419)" d="m0 0h4v4l3 1h-2v2h-4z" fill="#4ECBC6"/>
<path transform="translate(323,383)" d="m0 0 3 1-3 4-7-2-1-2z" fill="#0F0E3A"/>
<path transform="translate(1241,196)" d="m0 0h1l1 5 5-2-1 5h-7z" fill="#54A5C3"/>
<path transform="translate(1135,189)" d="m0 0h4v15l-4-1 2-3v-6z" fill="#299BAC"/>
<path transform="translate(1092,191)" d="m0 0 3 2-1 6-2 4-3-1 2-4v-6z" fill="#54C0CE"/>
<path transform="translate(245,720)" d="m0 0h2v6l-1 1h-5l2-6z" fill="#4585AF"/>
<path transform="translate(230,697)" d="m0 0h4v5l-1 1h-5z" fill="#3599AF"/>
<path transform="translate(365,695)" d="m0 0h4l-2 7-2 1 1-6h-2l-1 5-2-1 1-5z" fill="#4385A7"/>
<path transform="translate(458,539)" d="m0 0h1l2 6 1 7-4-2z" fill="#193E67"/>
<path transform="translate(443,539)" d="m0 0h2l1 9-3 4z" fill="#122854"/>
<path transform="translate(407,531)" d="m0 0h1v15l4 1-2 2h-3l-1 2z" fill="#74D4E4"/>
<path transform="translate(252,529)" d="m0 0 3 1 2 6h-4l-1 2-1-8z" fill="#13375E"/>
<path transform="translate(494,483)" d="m0 0h1v11h-6l2-1z" fill="#0F0E39"/>
<path transform="translate(808,395)" d="m0 0 3 1 1 7 3 1v1h-6z" fill="#8CE4F3"/>
<path transform="translate(219,895)" d="m0 0 3 3 1 5-4 4-1-9z" fill="#2B5384"/>
<path transform="translate(282,793)" d="m0 0h1l1 9h-8v-2l-5 1 4-4 2 1v3h5z" fill="#3BA7B8"/>
<path transform="translate(236,782)" d="m0 0 5 2v11l-2 3v-10l-3-2z" fill="#95EAF8"/>
<path transform="translate(249,745)" d="m0 0h5v5l-5 1z" fill="#36A9B6"/>
<path transform="translate(288,697)" d="m0 0 7 2v3h-7z" fill="#49AAC0"/>
<path transform="translate(808,697)" d="m0 0h1v6l-2 3h-7v-1h5v-5h2z" fill="#CFBB9A"/>
<path transform="translate(358,668)" d="m0 0h3l-2 7-4 1 1-6z" fill="#366F99"/>
<path transform="translate(361,668)" d="m0 0h5v2h-2l-1 5h-4z" fill="#9FEFFB"/>
<path transform="translate(416,648)" d="m0 0h5l-2 6h-4v-5z" fill="#1C6287"/>
<path transform="translate(267,648)" d="m0 0h2v5l-5 3-2-1 2-6z" fill="#34A3B5"/>
<path transform="translate(458,647)" d="m0 0h3v9h-4z" fill="#3575A2"/>
<path transform="translate(799,590)" d="m0 0h2v11h-4z" fill="#36B6BB"/>
<path transform="translate(1359,382)" d="m0 0h1l1 8-3 1-6-2 2-2h5z" fill="#73D2E5"/>
<path transform="translate(1327,195)" d="m0 0h1v8h2v2l-4-1-3-4 2-3h2z" fill="#97D7E5"/>
<path transform="translate(1073,188)" d="m0 0 4 4-2 10h-1z" fill="#63C9D9"/>
<path transform="translate(807,780)" d="m0 0 6 1 9 4-4 1-10-4z" fill="#DEF7FE"/>
<path transform="translate(483,720)" d="m0 0h6v3l-4 3h-2z" fill="#2B4B80"/>
<path transform="translate(364,720)" d="m0 0h4l2 1-3 7h-2l-1-2z" fill="#407FAA"/>
<path transform="translate(373,720)" d="m0 0h3v8l-4 1z" fill="#3A6CA0"/>
<path transform="translate(476,696)" d="m0 0 4 1-2 6-4-1 1-5z" fill="#59AEC9"/>
<path transform="translate(443,648)" d="m0 0 3 1v5l1 2h-5z" fill="#C9F2FB"/>
<path transform="translate(802,394)" d="m0 0h6l-3 1-1 8 3 1h-4l-2-9z" fill="#73D2E5"/>
<path transform="translate(884,196)" d="m0 0 4 3v5h-5v-3z" fill="#49B7C5"/>
<path transform="translate(230,791)" d="m0 0 2 4v6h-10l4-2h3z" fill="#70D1E2"/>
<path transform="translate(205,772)" d="m0 0 4 1-3 5h-2l-1-2-2 1 1-3zm-6 5 2 1-2 1z" fill="#2299AB"/>
<path transform="translate(294,719)" d="m0 0h3l-2 8h-3l1-7z" fill="#397FA7"/>
<path transform="translate(259,697)" d="m0 0 1 3-1 3h-5l1-5z" fill="#2A85A2"/>
<path transform="translate(237,646)" d="m0 0 3 1-3 8-3 1v-8l2 1z" fill="#9EF1FD"/>
<path transform="translate(711,331)" d="m0 0 2 1-10 10-1-2 5-6z" fill="#31B1BA"/>
<path transform="translate(805,190)" d="m0 0h2v11l1 3-4-1v-10z" fill="#6CCFE0"/>
<path transform="translate(1345,186)" d="m0 0h5l3 3h-3l-1 4-2-1v-2h2v-2l-5 1-1-2z" fill="#3773A1"/>
<path transform="translate(265,788)" d="m0 0h1l1 14-1 1h-6v-2h5z" fill="#368EAC"/>
<path transform="translate(285,717)" d="m0 0h2l-1 6-5 5v-3z" fill="#31588D"/>
<path transform="translate(352,694)" d="m0 0v3l-3 6h-2l1-7z" fill="#38689B"/>
<path transform="translate(348,672)" d="m0 0h1v8l-4-1v-5z" fill="#30538C"/>
<path transform="translate(1302,662)" d="m0 0h5l1 2-2 4-4-2z" fill="#0F0E39"/>
<path transform="translate(290,646)" d="m0 0 1 2-2 9-3 1v-6h2l1-5z" fill="#2E558D"/>
<path transform="translate(328,545)" d="m0 0 3 1v6l-4 1v-6z" fill="#234C76"/>
<path transform="translate(1317,515)" d="m0 0 3 2 4 2-5 2-2 4-1-8z" fill="#1D1B53"/>
<path transform="translate(272,389)" d="m0 0 4 1-1 3h-9v-2z" fill="#24356A"/>
<path transform="translate(1361,377)" d="m0 0 4 1-1 8-3-3z" fill="#13A9AD"/>
<path transform="translate(305,365)" d="m0 0h2v12l-1-4h-2l-1-5z" fill="#1D1B53"/>
<path transform="translate(695,355)" d="m0 0 1 2h2v6l-2 4h-1z" fill="#39AEB8"/>
<path transform="translate(868,188)" d="m0 0 1 3-3 10 3 1h-4v-9z" fill="#5AC7D3"/>
<path transform="translate(936,186)" d="m0 0h4v6l-1 2h-2z" fill="#3AA9B9"/>
<path transform="translate(1264,189)" d="m0 0h4v4h-3l-1 5h-1v-8z" fill="#8FE3F2"/>
</svg>
